<svg width="86" height="49" viewBox="0 0 86 49" fill="none" xmlns="http://www.w3.org/2000/svg">
<path d="M45.6877 38.1105L43 40.8329L40.3123 38.1105L43 35.3881L45.6877 38.1105ZM21.5014 24.5014L24.189 21.779L26.8767 24.5014L29.5617 21.779L26.8767 19.0566L24.189 16.3342L21.5014 19.0566L18.8137 21.779L16.126 24.5014L18.8137 27.2237L21.5014 29.9461L24.189 32.6685L26.8767 29.9461L24.189 27.2237L21.5014 24.5014ZM67.189 10.8895L64.5014 8.16712L61.8137 5.44475L59.126 8.16712L56.4383 10.8895L53.7534 8.16712L51.0657 5.44475L48.3781 8.16712L45.6904 10.8895L43.0027 13.6119L40.315 10.8895L37.6274 8.16712L34.9397 5.44475L32.252 8.16712L29.5644 10.8895L26.8767 8.16712L24.189 5.44475L21.5014 8.16712L18.8137 10.8895L16.126 13.6119L13.4383 16.3342L16.126 19.0566L18.8137 16.3342L21.5014 13.6119L24.189 10.8895L26.8767 13.6119L29.5617 16.3342L32.2493 19.0566L34.937 21.779L32.2493 24.5014L29.5617 27.2237L26.8767 29.9434L29.5617 32.6657L32.2493 29.9434L34.937 32.6657L32.2493 35.3881L29.5617 38.1105L32.2493 40.8329L34.937 43.5552L37.6247 46.2776L40.3123 49L43 46.2776L40.3123 43.5552L37.6247 40.8329L34.937 38.1105L37.6247 35.3881L40.3123 32.6657L43 29.9434L40.3123 27.221L37.6247 29.9434L34.937 27.221L37.6247 24.5014L40.3123 21.779L37.6247 19.0566L34.937 16.3342L32.2493 13.6119L34.937 10.8895L37.6247 13.6119L40.3123 16.3342L43 19.0566L45.6877 16.3342L48.3753 13.6119L51.063 10.8895L53.7507 13.6119L51.063 16.3342L48.3753 19.0566L45.6877 21.779L48.3753 24.5014L51.063 27.221L48.3753 29.9434L45.6877 27.221L43 29.9434L45.6877 32.6657L48.3753 35.3881L51.063 38.1105L48.3753 40.8329L45.6877 43.5552L43 46.2776L45.6877 49L48.3753 46.2776L51.063 43.5552L53.7507 40.8329L56.4383 38.1105L53.7507 35.3881L51.063 32.6657L53.7507 29.9434L56.4383 32.6657L59.126 29.9434L56.4383 27.221L53.7534 24.5014L51.0657 21.779L53.7534 19.0566L56.4411 16.3342L59.1287 13.6119L61.8164 10.8895L64.5041 13.6119L67.1917 16.3342L69.8794 19.0566L72.5671 16.3342L69.8794 13.6119L67.189 10.8895ZM45.6877 5.44475L43 2.72237L40.3123 5.44475L43 8.16712L45.6877 5.44475ZM64.5014 29.9434L67.189 27.221L69.8767 24.5014L67.189 21.779L64.5014 19.0566L61.8137 16.3342L59.126 19.0566L56.4383 21.779L59.126 24.5014L61.8137 21.779L64.5014 24.5014L61.8137 27.2237L59.126 29.9461L61.8137 32.6685L64.5014 29.9434ZM83.3123 5.44475L80.6301 2.72237L83.3178 0H77.9397L75.252 2.72237L77.9397 5.44475L80.6301 8.16712L77.9451 10.8895L75.2575 13.6119L72.5698 16.3342L75.2575 19.0566L77.9451 16.3342L80.6301 13.6119L83.3178 10.8895L86.0054 8.16712L83.3123 5.44475ZM8.06301 10.8895L5.37534 8.16712L8.06301 5.44475L10.7507 2.72237L8.06301 0H2.68767L5.37534 2.72237L2.68767 5.44475L0 8.16712L2.68767 10.8895L5.37534 13.6119L8.06301 16.3342L10.7507 19.0566L13.4383 16.3342L10.7507 13.6119L8.06301 10.8895ZM13.4383 10.8895L16.126 8.16712L13.4383 5.44475L10.7507 8.16712L13.4383 10.8895ZM75.252 8.16712L72.5644 5.44475L69.8767 8.16712L72.5644 10.8895L75.252 8.16712Z" fill="url(#paint0_linear_166_385)"/>
<defs>
<linearGradient id="paint0_linear_166_385" x1="43" y1="1.86166" x2="43" y2="51.0542" gradientUnits="userSpaceOnUse">
<stop stop-color="white" stop-opacity="0.3"/>
<stop offset="1" stop-color="white"/>
</linearGradient>
</defs>
</svg>
