<svg width="90" height="90" viewBox="0 0 90 90" fill="none" xmlns="http://www.w3.org/2000/svg">
<path d="M29.1091 23C29.1142 23.0225 29.1178 23.0454 29.1196 23.0686C29.1458 23.5486 29.1441 23.5486 29.5853 23.5486H29.7604C30.1106 23.5486 30.1106 23.5486 30.1368 23.9404C30.1368 24.0952 30.2104 24.1206 30.3242 24.1187C30.6533 24.1187 30.6516 24.0991 30.6411 24.4772C30.6411 24.628 30.6866 24.6888 30.8162 24.6848C31.1541 24.6731 31.1383 24.6555 31.1383 25.061C31.1383 25.2334 31.1383 25.4058 31.1383 25.5782C31.1383 25.7506 31.1786 25.8153 31.3397 25.8153C31.6443 25.8153 31.6443 25.8153 31.6443 26.162C31.6443 26.3579 31.6443 26.5382 31.6443 26.7263C31.6443 26.9143 31.6986 26.9418 31.8422 26.9418C32.1503 26.9418 32.1503 26.9418 32.1503 27.2866V35.6501C32.1503 35.987 32.1503 35.9968 31.8597 35.989C31.6933 35.989 31.6408 36.0497 31.6443 36.2339C31.6443 36.8216 31.6443 37.3937 31.6443 37.9736C31.6443 38.1852 31.59 38.2831 31.3957 38.2498C31.2014 38.2165 31.1226 38.3008 31.1331 38.5339C31.1488 38.9257 31.1331 39.3176 31.1331 39.7094C31.1331 39.8759 31.0928 39.9543 30.9317 39.9445C30.592 39.9268 30.6288 39.9445 30.6288 40.2932C30.6288 40.6419 30.6288 41.0298 30.6288 41.3962C30.6288 41.5921 30.5693 41.6411 30.4082 41.6391C30.1228 41.6391 30.1228 41.6391 30.1211 41.9585C30.1211 42.3346 30.1211 42.7108 30.1211 43.085C30.1211 43.2672 30.0703 43.3357 29.904 43.3318C29.6151 43.3318 29.6151 43.3318 29.6133 43.6707C29.6133 43.851 29.6133 44.0312 29.6133 44.2095C29.6133 44.3878 29.573 44.4642 29.4015 44.4603C29.1091 44.4603 29.1091 44.4603 29.1073 44.7953C29.1073 44.9912 29.1073 45.1714 29.1073 45.3575C29.1073 45.5437 29.0513 45.5887 28.8989 45.5887C28.6031 45.5887 28.6031 45.5887 28.6013 45.9198C28.6013 46.1157 28.6013 46.296 28.6013 46.484C28.6013 46.6721 28.5523 46.7172 28.3964 46.7172C28.0953 46.7172 28.0953 46.7172 28.0953 47.0679C28.0953 47.2481 28.0953 47.4283 28.0953 47.6086C28.0953 47.7888 28.055 47.8535 27.8939 47.8437C27.5543 47.826 27.591 47.8437 27.5893 48.1924C27.5893 48.3883 27.5893 48.5685 27.5893 48.7566C27.5893 48.9447 27.535 48.978 27.3914 48.9721C27.0413 48.9565 27.0868 48.9721 27.0833 49.3404C27.0833 49.5207 27.0833 49.7009 27.0833 49.8812C27.0833 50.0614 27.036 50.1084 26.8889 50.1006C26.5388 50.083 26.5808 50.1006 26.5773 50.465C26.5773 50.6374 26.5773 50.8098 26.5773 50.9822C26.5773 51.1546 26.537 51.2349 26.3654 51.231C26.073 51.231 26.073 51.231 26.0713 51.566C26.0713 51.7619 26.0713 51.9422 26.0713 52.1302C26.0713 52.3183 26.0153 52.3653 25.8629 52.3575C25.5548 52.3438 25.5548 52.3575 25.567 52.6905C25.567 52.861 25.518 52.9237 25.3622 52.9237C25.061 52.9237 25.061 52.9237 25.061 53.2744C25.061 53.4468 25.061 53.6192 25.061 53.7896C25.061 53.9601 25.0173 54.058 24.8369 54.0521C24.562 54.0521 24.5515 54.0521 24.5568 54.3734C24.5568 54.5693 24.499 54.6183 24.3362 54.6164C24.0508 54.6164 24.0508 54.6164 24.049 54.9337C24.049 55.1297 24.049 55.3256 24.049 55.5215C24.049 55.6821 24.0018 55.7429 23.8547 55.7448C23.5535 55.7448 23.5465 55.7566 23.5465 56.0818C23.5465 56.262 23.4817 56.3091 23.3329 56.3091C23.0405 56.3091 23.0405 56.3091 23.0388 56.6421C23.0388 56.838 23.0388 57.0183 23.0388 57.2063C23.0388 57.3944 22.9845 57.4375 22.8304 57.4375C22.5345 57.4375 22.5345 57.4375 22.5328 57.7666C22.5328 57.9469 22.5328 58.1271 22.5328 58.3074C22.5328 58.4876 22.5695 58.5385 22.7219 58.5327C23.0475 58.5189 23.0388 58.5033 23.0388 58.8912C23.0388 59.0871 23.0388 59.2673 23.0388 59.4554C23.0388 59.6102 23.0895 59.665 23.2244 59.6513C23.5623 59.6396 23.5518 59.6356 23.543 60.0059C23.543 60.1568 23.5868 60.2214 23.7181 60.2156C23.9142 60.2156 24.1103 60.2156 24.3064 60.2156C24.5025 60.2156 24.5585 60.2665 24.5515 60.4781C24.541 60.7915 24.5515 60.7837 24.8282 60.7857C24.9717 60.7857 25.0295 60.7347 25.0243 60.5682C25.0138 60.2038 25.0033 60.2195 25.3499 60.2195C25.6966 60.2195 25.9942 60.2195 26.3164 60.2195C26.474 60.2195 26.5423 60.1783 26.5388 59.9824C26.5388 59.6533 26.5388 59.6533 26.8382 59.6533C27.0133 59.6533 27.1883 59.6533 27.3634 59.6533C27.5018 59.6533 27.549 59.5945 27.5385 59.4437C27.528 59.0695 27.5228 59.0773 27.8572 59.0891C27.9902 59.0891 28.0463 59.0401 28.0428 58.8931C28.0305 58.515 28.027 58.5209 28.3562 58.5327C28.5085 58.5327 28.547 58.466 28.547 58.3093C28.547 57.9723 28.547 57.9626 28.8359 57.9704C29.011 57.9704 29.0565 57.9097 29.053 57.7255C29.053 57.4081 29.053 57.3983 29.3367 57.4042C29.4995 57.4042 29.5608 57.3552 29.5573 57.1652C29.5573 56.8439 29.5573 56.8321 29.8374 56.8419C30.0125 56.8419 30.0703 56.7714 30.0598 56.5814C30.0493 56.3913 30.0598 56.1425 30.0598 55.9231C30.0598 55.7585 30.1158 55.7017 30.2576 55.7076C30.5745 55.7213 30.5763 55.7252 30.564 55.3628C30.564 55.2021 30.6113 55.1355 30.7584 55.1434C31.1086 55.161 31.0665 55.1434 31.07 54.779C31.07 54.6066 31.07 54.4342 31.07 54.2618C31.07 54.0894 31.1103 54.0051 31.2819 54.013C31.5795 54.0286 31.5883 54.0345 31.5743 53.6779C31.5743 53.5036 31.6303 53.4487 31.7826 53.4487C32.0785 53.4487 32.0785 53.4487 32.0803 53.1196C32.0803 52.9237 32.0803 52.7415 32.0803 52.5554C32.0803 52.3693 32.1276 52.3144 32.2851 52.3222C32.6161 52.3379 32.5845 52.3222 32.5863 51.9696C32.5863 51.7913 32.5863 51.6091 32.5863 51.4308C32.5863 51.2525 32.6266 51.184 32.7876 51.1938C33.1273 51.2114 33.0905 51.1938 33.0923 50.8451C33.0923 50.6491 33.0923 50.4689 33.0923 50.2828C33.0923 50.0967 33.1466 50.0594 33.2901 50.0653C33.6403 50.081 33.5948 50.0653 33.5983 49.697C33.5983 49.5168 33.5983 49.3365 33.5983 49.1582C33.5983 48.98 33.6456 48.929 33.7926 48.9369C34.1428 48.9565 34.1008 48.9251 34.1026 48.5725C34.1043 48.2198 34.1026 47.8515 34.1026 47.493C34.1026 47.3167 34.1446 47.2383 34.3162 47.2422C34.6086 47.2422 34.6086 47.2422 34.6103 46.9072C34.6103 46.7113 34.6103 46.5311 34.6103 46.3449C34.6103 46.1588 34.6908 46.1177 34.8484 46.1177C35.1443 46.1177 35.1443 46.1177 35.1461 45.7866C35.1461 45.5907 35.1461 45.3948 35.1461 45.1989C35.1461 45.05 35.1933 44.9931 35.3212 44.9892C35.6293 44.9892 35.6363 44.9736 35.6398 44.6385C35.6398 44.4701 35.7046 44.4211 35.8429 44.427C36.046 44.427 36.2491 44.427 36.4522 44.427C36.5905 44.427 36.6588 44.3878 36.6536 44.2154C36.6413 43.849 36.6291 43.8608 36.974 43.8608C37.9615 43.8608 38.949 43.8608 39.9365 43.8608C40.1378 43.8608 40.2464 43.9097 40.2096 44.1586C40.1728 44.4074 40.2674 44.4622 40.4582 44.4309C40.6491 44.3995 40.7226 44.4936 40.7191 44.7189C40.7069 45.3066 40.7104 45.8787 40.7191 46.4586C40.7191 46.6427 40.6823 46.7289 40.4985 46.7231C40.2131 46.7231 40.2131 46.7231 40.2114 47.0424C40.2114 47.2383 40.2114 47.4342 40.2114 47.6301C40.2114 47.7908 40.1623 47.8574 40.017 47.8495C39.6668 47.8319 39.7071 47.8495 39.7071 48.2139C39.7071 48.5783 39.6913 48.9036 39.7071 49.2484C39.7211 49.4972 39.6301 49.5736 39.4287 49.5403C39.2274 49.507 39.1923 49.6069 39.1923 49.8087C39.1923 50.0105 39.2431 50.0849 39.4305 50.0771C39.7001 50.0634 39.7018 50.0771 39.7018 50.3925C39.7018 50.5884 39.7018 50.7843 39.7018 50.9802C39.7018 51.137 39.7386 51.2095 39.8909 51.2036C40.2166 51.1899 40.2079 51.1742 40.2079 51.5641C40.2079 51.76 40.2079 51.9402 40.2079 52.1283C40.2079 52.2811 40.2586 52.3359 40.3934 52.3242C40.7296 52.3124 40.7226 52.3066 40.7121 52.6788C40.7121 52.8296 40.7559 52.8923 40.8872 52.8884C41.2251 52.8747 41.2199 52.8727 41.2094 53.2391C41.2094 53.4095 41.2689 53.4526 41.409 53.4526C41.7154 53.4526 41.7154 53.4526 41.7154 53.7994C41.7154 53.9953 41.7154 54.1775 41.7154 54.3636C41.7154 54.5498 41.7661 54.585 41.9115 54.5811C42.2319 54.5693 42.2319 54.5674 42.2196 54.924C42.2196 55.1101 42.2861 55.1473 42.4332 55.1453C42.7256 55.1453 42.7256 55.1453 42.7256 55.4843C42.7256 55.6802 42.7256 55.8604 42.7256 56.0485C42.7256 56.2052 42.7624 56.2797 42.9147 56.2738C43.2404 56.2601 43.2316 56.2444 43.2316 56.6323C43.2316 56.8282 43.2316 57.0085 43.2316 57.1965C43.2316 57.3513 43.2824 57.4062 43.4172 57.4022C43.7569 57.3905 43.7376 57.3768 43.7376 57.7804C43.7376 58.3289 43.7376 58.8775 43.7376 59.426C43.7376 59.5965 43.7814 59.669 43.9407 59.6592C44.1368 59.6474 44.3329 59.6592 44.529 59.6592C44.6778 59.6592 44.7251 59.5984 44.7216 59.4378C44.7111 59.0793 44.7094 59.0832 45.0298 59.0949C45.1733 59.0949 45.2311 59.044 45.2259 58.8775C45.2154 58.5209 45.2101 58.5189 45.5305 58.5307C45.6916 58.5307 45.7319 58.4621 45.7301 58.2956C45.7301 57.9724 45.7301 57.9645 46.0313 57.9665C46.1888 57.9665 46.2361 57.9077 46.2344 57.7353C46.2344 57.4081 46.2344 57.3983 46.5303 57.4022C46.6843 57.4022 46.7421 57.3513 46.7404 57.175C46.7404 56.8439 46.7404 56.8321 47.031 56.84C47.2061 56.84 47.2464 56.7694 47.2429 56.5912C47.2429 56.2777 47.2429 56.2679 47.5318 56.2757C47.7069 56.2757 47.7524 56.215 47.7489 56.0309C47.7489 55.7135 47.7489 55.7037 48.0325 55.7096C48.1936 55.7096 48.2636 55.6625 48.2514 55.4705C48.2409 55.2513 48.2409 55.0315 48.2514 54.8123C48.2514 54.6575 48.1988 54.6046 48.0658 54.6164C47.7279 54.6281 47.7454 54.6438 47.7454 54.2363V47.6027C47.7454 47.254 47.7454 47.2461 48.0465 47.2481C48.2023 47.2481 48.2584 47.1932 48.2514 47.0189C48.2409 46.7916 48.2514 46.5644 48.2514 46.3371C48.2514 46.1765 48.2986 46.1157 48.4457 46.1138C48.7469 46.1138 48.7539 46.102 48.7539 45.7768C48.7539 45.5966 48.8187 45.5495 48.9675 45.5515C50.011 45.5515 51.0539 45.5515 52.0963 45.5515C52.2556 45.5515 52.3222 45.6024 52.3187 45.7925C52.3187 46.1118 52.3187 46.1275 52.597 46.1138C52.8001 46.1138 52.8229 46.2156 52.8229 46.3998C52.8229 48.4686 52.8229 50.5355 52.8229 52.6043C52.8229 52.8003 52.8527 52.9276 53.061 52.8904C53.2694 52.8532 53.3342 52.9511 53.3342 53.1882C53.3254 55.0533 53.3342 56.9105 53.3342 58.7834C53.3342 59.0851 53.4445 59.1753 53.7141 59.093C53.8209 59.0616 53.8087 58.9735 53.8087 58.8971C53.8087 58.4817 53.8087 58.0664 53.8087 57.6511C53.8087 57.4669 53.8629 57.4042 54.0275 57.4062C54.3147 57.4062 54.3147 57.4062 54.3164 57.0672C54.3164 56.887 54.3164 56.7048 54.3164 56.5265C54.3164 56.3482 54.3602 56.2738 54.53 56.2777C54.8207 56.2777 54.8207 56.2777 54.8224 55.9427C54.8224 55.7468 54.8224 55.5646 54.8224 55.3785C54.8224 55.1924 54.8819 55.1493 55.0325 55.1493C55.3267 55.1493 55.3267 55.1493 55.3284 54.8182C55.3284 54.6222 55.3284 54.4263 55.3284 54.2304C55.3284 54.0776 55.3774 54.0169 55.514 54.0228C55.8799 54.0443 55.8309 54.013 55.8344 53.6466C55.8344 53.4742 55.8344 53.2998 55.8344 53.1294C55.8344 52.9589 55.8782 52.8845 56.0375 52.8943C56.3772 52.9119 56.3369 52.8845 56.3404 52.5456C56.3404 52.3653 56.3492 52.1831 56.3404 52.0049C56.3317 51.8266 56.4034 51.7619 56.5628 51.7639C56.8464 51.7639 56.8464 51.7639 56.8482 51.4445C56.8482 51.0684 56.8482 50.6903 56.8482 50.3161C56.8482 50.13 56.9025 50.0692 57.067 50.0712C57.3542 50.0712 57.3542 50.0712 57.3559 49.7323C57.3559 49.552 57.3559 49.3698 57.3559 49.1915C57.3559 49.0133 57.3997 48.9388 57.5695 48.9427C57.8602 48.9427 57.8602 48.9427 57.8619 48.6077C57.8619 48.4118 57.8619 48.2296 57.8619 48.0435C57.8619 47.8574 57.9215 47.8143 58.072 47.8143C58.3609 47.8143 58.3714 47.8143 58.3644 47.5067C58.3644 47.3108 58.4205 47.2246 58.5938 47.254C58.8109 47.2912 58.909 47.1972 58.8722 46.9464C58.8407 46.7309 58.9405 46.6839 59.1156 46.6858C59.97 46.6937 60.8238 46.6937 61.6771 46.6858C61.8679 46.6858 61.9555 46.7466 61.9257 46.964C61.8959 47.1815 61.9712 47.2892 62.1778 47.254C62.3844 47.2187 62.458 47.3284 62.43 47.5478C62.402 47.7673 62.4632 47.8319 62.6576 47.8221C62.9325 47.8084 62.9342 47.8221 62.9342 48.1317C62.9342 51.5066 62.9342 54.8835 62.9342 58.2623C62.9342 58.4758 62.9867 58.5464 63.1828 58.5444C63.3789 58.5425 63.4052 58.4602 63.3859 58.2643C63.3667 58.0683 63.3859 57.8411 63.3859 57.6295C63.3772 57.4532 63.4402 57.3983 63.5943 57.3983C63.8902 57.3983 63.8902 57.3983 63.8919 57.0692C63.8919 56.8733 63.8919 56.6911 63.8919 56.505C63.8919 56.3188 63.9392 56.264 64.0968 56.2718C64.4277 56.2875 64.3962 56.2718 64.398 55.9211C64.398 55.7487 64.398 55.5744 64.398 55.4039C64.398 55.2335 64.4417 55.1355 64.6221 55.1414C64.897 55.1414 64.9075 55.1414 64.9022 54.8201C64.9022 54.6242 64.96 54.5752 65.1211 54.5772C65.4082 54.5772 65.4082 54.5772 65.41 54.2598C65.41 53.8837 65.41 53.5075 65.41 53.1314C65.41 52.9511 65.459 52.8806 65.6253 52.8845C65.916 52.8845 65.916 52.8845 65.9177 52.5475C65.9177 52.3673 65.9177 52.1871 65.9177 52.0068C65.9177 51.8266 65.9562 51.7521 66.1278 51.756C66.422 51.756 66.422 51.756 66.4237 51.423C66.4237 51.2271 66.4237 51.0468 66.4237 50.8588C66.4237 50.6707 66.478 50.6276 66.6303 50.6276C66.9297 50.6276 66.9297 50.6276 66.9297 50.2749C66.9297 49.9223 66.9297 49.5383 66.9297 49.17C66.9297 48.9996 66.9787 48.929 67.1346 48.9369C67.4672 48.9525 67.4357 48.9369 67.4375 48.5862V48.2727C67.4375 47.8515 67.4375 47.8456 67.8052 47.8025C67.919 47.7908 67.9417 47.7261 67.9417 47.6184C67.9417 47.3754 67.9417 47.1325 67.9417 46.8896C67.9417 46.725 67.996 46.6662 68.1396 46.6721C68.4617 46.6858 68.4582 46.6839 68.446 46.3293C68.446 46.1686 68.4915 46.1079 68.6386 46.1059C68.9415 46.1059 68.9485 46.0942 68.9485 45.769C68.9485 45.5907 69.0115 45.5417 69.1603 45.5437C70.2109 45.5437 71.2614 45.5437 72.3119 45.5437C72.4152 45.5437 72.501 45.5437 72.5115 45.7082C72.5395 46.1001 72.5465 46.1001 72.8967 46.1001C72.9317 46.1001 72.965 46.1 73 46.1157V48.9369C72.9099 48.9482 72.8192 48.9528 72.7286 48.9506C72.5693 48.9369 72.494 48.9937 72.508 49.1876C72.522 49.3816 72.508 49.5481 72.508 49.7283C72.508 50.0732 72.508 50.081 72.2051 50.0771C72.0458 50.0771 71.9985 50.1398 72.002 50.3122C72.0108 50.6726 72.002 51.0331 72.002 51.3936C72.002 51.7991 72.0195 51.7854 71.6816 51.7717C71.5468 51.7717 71.4907 51.8227 71.496 51.9774C71.5048 52.1635 71.496 52.3516 71.496 52.5397C71.496 52.9315 71.5048 52.9139 71.1791 52.9002C71.0268 52.9002 70.983 52.9668 70.99 53.1235C70.997 53.2802 70.99 53.484 70.99 53.6642C70.99 54.0561 71.0005 54.0404 70.6766 54.0286C70.5295 54.0286 70.477 54.0874 70.484 54.2481C70.491 54.4087 70.484 54.6242 70.484 54.8123C70.484 55.1493 70.484 55.1551 70.1758 55.1571C70.0323 55.1571 69.971 55.2061 69.978 55.3726C69.985 55.5391 69.978 55.7487 69.978 55.9368C69.978 56.2777 69.978 56.2875 69.6733 56.2836C69.5123 56.2836 69.4632 56.3522 69.472 56.5206C69.4807 56.6891 69.472 56.8654 69.472 57.0378C69.472 57.4414 69.4877 57.4297 69.1498 57.414C69.0115 57.414 68.9607 57.4708 68.966 57.6217C68.9712 57.7725 68.966 57.9821 68.966 58.1624C68.966 58.5718 68.9835 58.5542 68.6473 58.5425C68.5143 58.5425 68.4547 58.5895 68.46 58.7384C68.4687 58.9343 68.46 59.1302 68.46 59.3261C68.46 59.6572 68.46 59.665 68.1658 59.6631C68.017 59.6631 67.947 59.7023 67.954 59.8864C67.9645 60.241 67.9662 60.2391 67.6441 60.2273C67.4987 60.2273 67.4427 60.2822 67.4497 60.4467C67.4567 60.6113 67.4497 60.8209 67.4497 61.009C67.4497 61.3479 67.4497 61.3558 67.1416 61.3558C66.9998 61.3558 66.9367 61.4028 66.9437 61.5693C66.9525 61.7652 66.9437 61.9611 66.9437 62.157C66.9437 62.4803 66.9437 62.4881 66.6601 62.4842C66.506 62.4842 66.4307 62.5214 66.436 62.7174C66.436 63.0426 66.436 63.0524 66.1401 63.0484C65.9842 63.0484 65.9317 63.1033 65.9335 63.2777C65.9335 63.6068 65.9335 63.6185 65.6393 63.6107C65.4642 63.6107 65.4205 63.6852 65.4292 63.8615C65.4397 64.0731 65.4292 64.2847 65.4292 64.4962C65.4292 64.7078 65.3644 64.7588 65.1964 64.747C65.0283 64.7353 64.8882 64.747 64.7341 64.747C64.4277 64.747 64.4207 64.747 64.4207 65.084C64.4207 65.2564 64.3664 65.321 64.2124 65.3132C63.9112 65.2995 63.9025 65.2936 63.9147 65.6423C63.9147 65.8128 63.8692 65.8794 63.7116 65.8794C62.493 65.8794 61.275 65.8794 60.0575 65.8794C59.9052 65.8794 59.8422 65.8265 59.8492 65.6521C59.8632 65.2936 59.8492 65.3014 59.5568 65.3171C59.3817 65.3171 59.3414 65.2446 59.3432 65.0683C59.3432 64.7588 59.3432 64.749 59.056 64.7529C58.8914 64.7529 58.8354 64.6902 58.8389 64.508C58.8477 64.1162 58.8389 63.7087 58.8389 63.309C58.8389 63.1131 58.7899 63.0465 58.6131 63.0524C58.3329 63.0622 58.3329 63.0524 58.3329 62.7252C58.3329 61.4087 58.3329 60.0921 58.3329 58.7775C58.3329 58.5581 58.2436 58.5405 58.0895 58.5385C57.9355 58.5366 57.8427 58.566 57.8497 58.7815C57.8637 59.1478 57.8497 59.5161 57.8497 59.8845C57.8497 60.2528 57.8497 60.2351 57.5433 60.2312C57.3822 60.2312 57.3349 60.3018 57.3437 60.4683C57.3524 60.6348 57.3437 60.8288 57.3437 61.009C57.3437 61.3558 57.3437 61.3636 57.0408 61.3616C56.8832 61.3616 56.8289 61.4204 56.8377 61.5928C56.8464 61.7652 56.8377 61.9376 56.8377 62.11C56.8377 62.5195 56.8552 62.5018 56.519 62.4901C56.3842 62.4901 56.3264 62.5391 56.3317 62.686C56.3317 62.9054 56.3317 63.1248 56.3317 63.3443C56.3317 63.5637 56.2861 63.6479 56.097 63.6127C55.8677 63.5696 55.7924 63.6891 55.8239 63.9281C55.8502 64.124 55.7661 64.2063 55.5963 64.1769C55.3739 64.1377 55.2864 64.2416 55.3197 64.4884C55.3459 64.6843 55.2706 64.7705 55.0955 64.7411C54.8802 64.7059 54.7804 64.794 54.8154 65.0487C54.8417 65.2348 54.7751 65.3152 54.5948 65.3093C54.3199 65.3093 54.3112 65.3093 54.3147 65.6306C54.3147 65.8167 54.2569 65.8735 54.094 65.8735C52.8848 65.8735 51.6738 65.8735 50.461 65.8735C50.2859 65.8735 50.2439 65.8049 50.2456 65.6267C50.2456 65.3152 50.2456 65.3054 49.9602 65.3093C49.7974 65.3093 49.7379 65.2525 49.7414 65.0663C49.7414 64.749 49.7414 64.7372 49.4595 64.745C49.2844 64.745 49.2266 64.6706 49.2371 64.4825C49.2476 64.2944 49.2371 64.122 49.2371 63.9418C49.2371 63.6205 49.2371 63.6088 48.957 63.6166C48.7819 63.6166 48.7241 63.55 48.7294 63.358C48.7399 62.9505 48.7294 62.543 48.7294 62.1355C48.7294 62.0552 48.7486 61.9631 48.6436 61.9259C48.3949 61.8377 48.2514 61.9396 48.2584 62.2237C48.2584 62.4059 48.2216 62.494 48.0378 62.4881C47.7594 62.4881 47.7506 62.4881 47.7541 62.8055C47.7541 62.9877 47.7051 63.0602 47.537 63.0524C47.2604 63.0386 47.2341 63.0151 47.2481 63.3893C47.2481 63.5461 47.2096 63.6146 47.059 63.6166C46.7596 63.6166 46.7526 63.6283 46.7456 63.9732C46.7456 64.126 46.6913 64.1847 46.5583 64.1789C46.3832 64.1789 46.2081 64.1789 46.033 64.1789C45.7441 64.1789 45.7336 64.1789 45.7371 64.5119C45.7371 64.7078 45.6653 64.749 45.5113 64.745C45.1611 64.745 44.8249 64.745 44.4817 64.745C44.2856 64.745 44.1876 64.796 44.2209 65.0311C44.2541 65.2662 44.1561 65.321 43.96 65.3191C43.1406 65.3073 42.3212 65.3191 41.5088 65.3191C41.2111 65.3191 41.2024 65.3191 41.2059 65.6423C41.2059 65.8265 41.1533 65.8911 40.9887 65.8872C40.7051 65.8872 40.6946 65.8872 40.7016 66.2026C40.7016 66.3985 40.6333 66.4573 40.467 66.4514C40.1938 66.4397 39.9207 66.4514 39.6476 66.4514C39.2064 66.4514 39.2081 66.4514 39.1818 66.9314C39.18 66.9546 39.1765 66.9775 39.1713 67H35.1443C35.1333 66.9072 35.1292 66.8135 35.1321 66.7198C35.1513 66.5239 35.09 66.4319 34.8992 66.4495C34.7084 66.4671 34.535 66.4397 34.3529 66.4495C34.1708 66.4593 34.0938 66.377 34.1218 66.1772C34.1551 65.9362 34.0623 65.8441 33.8522 65.8813C33.6771 65.9127 33.5895 65.8226 33.6176 65.6169C33.6508 65.3818 33.5685 65.2799 33.3532 65.3171C33.1781 65.3485 33.0835 65.2701 33.1133 65.0585C33.1431 64.8469 33.0748 64.7117 32.8524 64.7529C32.6301 64.794 32.6021 64.6843 32.6056 64.4747C32.6137 63.7067 32.6137 62.9387 32.6056 62.1708C32.6056 61.9494 32.6756 61.873 32.8612 61.9004C33.0468 61.9278 33.1483 61.8671 33.1151 61.634C33.0818 61.4008 33.1711 61.2989 33.3829 61.3362C33.558 61.3675 33.6473 61.2852 33.6193 61.0756C33.5913 60.866 33.6648 60.7328 33.8819 60.77C34.057 60.8013 34.1358 60.7308 34.1271 60.5153C34.1148 60.2097 34.1271 60.2077 34.4037 60.2077C35.4122 60.2077 36.4207 60.2077 37.4275 60.2077C37.6026 60.2077 37.6621 60.1509 37.6551 59.955C37.6446 59.6023 37.6551 59.2497 37.6551 58.8971C37.6551 58.5444 37.6848 58.5307 37.3522 58.5464C37.1963 58.5464 37.1403 58.4837 37.1491 58.3132C37.1578 58.1428 37.1491 57.9371 37.1491 57.749C37.1491 57.4277 37.1491 57.4199 36.8514 57.4199C36.6973 57.4199 36.6361 57.365 36.6431 57.1887C36.6571 56.8361 36.6431 56.84 36.3507 56.8556C36.1756 56.8556 36.1318 56.7832 36.1388 56.6068C36.1476 56.3796 36.1388 56.1523 36.1388 55.9251C36.1388 55.7918 36.1073 55.7194 35.9742 55.7292C35.7571 55.7292 35.54 55.7292 35.3229 55.7292C35.1898 55.7292 35.1478 55.7977 35.1583 55.9251C35.1583 56.121 35.1583 56.3012 35.1583 56.4893C35.1583 56.8811 35.1583 56.8615 34.8432 56.8498C34.6926 56.8498 34.6471 56.9125 34.6523 57.0731C34.6523 57.269 34.6523 57.4649 34.6523 57.6608C34.6523 57.9763 34.6523 57.9861 34.3617 57.9782C34.1971 57.9782 34.1411 58.037 34.1446 58.2212C34.1446 58.5366 34.1446 58.5444 33.8417 58.5444C33.6999 58.5444 33.6368 58.5895 33.6421 58.758C33.6526 59.1243 33.6596 59.1224 33.3199 59.1086C33.1816 59.1086 33.1343 59.1674 33.1448 59.3183C33.1448 59.5377 33.1448 59.7571 33.1448 59.9746C33.1448 60.192 33.0888 60.2704 32.905 60.2391C32.6948 60.2018 32.6038 60.2939 32.6371 60.5349C32.6651 60.7308 32.5933 60.8386 32.406 60.8033C32.1748 60.7602 32.1013 60.8797 32.1328 61.1187C32.1591 61.3146 32.075 61.3969 31.9052 61.3675C31.6811 61.3283 31.5953 61.4322 31.6286 61.679C31.6548 61.8749 31.5795 61.9611 31.4045 61.9317C31.1873 61.8965 31.0893 61.9846 31.1243 62.2393C31.1488 62.4254 31.084 62.5058 30.9037 62.4999C30.6288 62.4999 30.6183 62.4999 30.6236 62.8212C30.6236 63.0073 30.5658 63.0661 30.4047 63.0641C30.1228 63.0641 30.1158 63.0641 30.1193 63.3815C30.1193 63.5598 30.072 63.6362 29.904 63.6283C29.6273 63.6146 29.5975 63.5872 29.6133 63.9653C29.6133 64.1416 29.5538 64.1985 29.4032 64.1906C29.1038 64.1789 29.0968 64.173 29.1091 64.5237C29.1091 64.698 29.0583 64.7646 28.9025 64.7548C28.7466 64.745 28.568 64.7548 28.3999 64.7548C28.1076 64.7548 28.0988 64.7548 28.1023 65.0859C28.1023 65.2818 28.034 65.3308 27.8782 65.321C27.7224 65.3112 27.5123 65.321 27.3319 65.321C27.1516 65.321 27.078 65.3641 27.0868 65.5796C27.099 65.8853 27.0868 65.8872 26.8102 65.8872H21.8692C21.5068 65.8872 21.519 65.9049 21.533 65.5267C21.533 65.372 21.4822 65.3171 21.3474 65.321C21.1443 65.321 20.9412 65.321 20.7381 65.321C20.5753 65.321 20.5158 65.2642 20.5193 65.0781C20.5193 64.7607 20.5193 64.7529 20.2374 64.7568C20.0815 64.7568 20.008 64.7098 20.015 64.5178C20.029 64.1847 20.0325 64.1749 19.7174 64.1906C19.5598 64.1906 19.5055 64.1299 19.5125 63.9594C19.5248 63.6166 19.5248 63.6127 19.2166 63.6264C19.0643 63.6264 19.0013 63.5755 19.0065 63.3991C19.0153 63.1013 19.0678 63.0406 18.6948 63.0622C18.546 63.0622 18.497 62.9955 18.504 62.8388C18.511 62.6821 18.504 62.4783 18.504 62.2981C18.504 61.9376 18.5425 61.9161 18.1941 61.9337C18.0488 61.9337 17.991 61.8769 17.998 61.7143C17.998 61.5184 17.998 61.3225 17.998 61.1265C17.998 60.8111 17.998 60.7994 17.7126 60.8072C17.5375 60.8072 17.4867 60.7288 17.4902 60.5427C17.499 60.051 17.4902 59.5632 17.4902 59.0636C17.4902 58.564 17.4902 58.5718 17.0613 58.5425C17.0406 58.5404 17.0201 58.5365 17 58.5307V45.5691C17.063 45.5691 17.1243 45.5554 17.1873 45.5535C17.4902 45.5535 17.4902 45.5535 17.4902 45.2008C17.4902 44.1057 17.4902 43.0085 17.4902 41.9134C17.4902 41.6078 17.4902 41.598 17.7686 41.6078C17.9437 41.6078 17.9997 41.547 17.998 41.3531C17.998 40.6086 17.998 39.8642 17.998 39.1216C17.998 38.7906 17.998 38.7788 18.2921 38.7866C18.4672 38.7866 18.5075 38.7161 18.504 38.5378C18.504 37.9736 18.504 37.4094 18.504 36.8471C18.504 36.5317 18.504 36.5219 18.7929 36.5297C18.9592 36.5297 19.0153 36.4729 19.01 36.2868C18.9995 35.9185 19.01 35.5502 19.01 35.1818C19.01 34.8429 19.01 34.8331 19.3164 34.837C19.4775 34.837 19.5195 34.7665 19.516 34.6C19.5073 34.2317 19.516 33.8634 19.516 33.495C19.516 33.1267 19.516 33.1404 19.8172 33.1424C19.973 33.1424 20.0255 33.0856 20.022 32.9112C20.0133 32.5449 20.022 32.1765 20.022 31.8082C20.022 31.4399 20.0115 31.436 20.3389 31.4497C20.493 31.4497 20.5333 31.3792 20.528 31.2244C20.5228 31.0696 20.528 30.8639 20.528 30.6837C20.528 30.2919 20.5175 30.3095 20.8414 30.3213C20.9902 30.3213 21.041 30.2605 21.034 30.0999C21.027 29.9392 21.034 29.7257 21.034 29.5376C21.034 29.2006 21.034 29.1948 21.3422 29.1928C21.4857 29.1928 21.547 29.1438 21.54 28.9773C21.533 28.8108 21.54 28.6011 21.54 28.4131C21.54 28.0722 21.54 28.0624 21.8447 28.0663C22.004 28.0663 22.053 27.9997 22.046 27.8292C22.0373 27.6196 22.0548 27.4061 22.046 27.1964C22.0373 26.9868 22.1056 26.9026 22.2859 26.9339C22.4995 26.9711 22.587 26.8752 22.5538 26.6361C22.5258 26.4402 22.5993 26.3344 22.7866 26.3697C23.0178 26.4128 23.0878 26.2913 23.058 26.0523C23.0318 25.8564 23.1176 25.7761 23.2856 25.8055C23.5098 25.8447 23.5955 25.7389 23.5623 25.494C23.536 25.2981 23.6131 25.2119 23.7864 25.2412C24.0035 25.2785 24.1016 25.1883 24.0665 24.9337C24.042 24.7475 24.1068 24.6672 24.2871 24.6731C24.562 24.6731 24.5708 24.6731 24.5673 24.3518C24.5673 24.1559 24.6233 24.1069 24.7861 24.1089C25.061 24.1128 25.061 24.103 25.061 23.7837C25.061 23.6054 25.1066 23.529 25.2764 23.5368C25.5548 23.5486 25.8367 23.5368 26.1151 23.5368C26.5563 23.5368 26.5545 23.5368 26.5808 23.0568C26.582 23.0377 26.5843 23.0187 26.5878 23H29.1091ZM27.5823 29.5004C27.5823 29.3201 27.5683 29.1399 27.5823 28.9616C27.6033 28.7265 27.5368 28.6188 27.3179 28.658C27.099 28.6971 27.0518 28.5835 27.0745 28.3778C27.0772 28.3387 27.0772 28.2994 27.0745 28.2603C27.0745 28.0526 26.9432 28.0957 26.8382 28.0957C26.7331 28.0957 26.5983 28.0526 26.6001 28.2603C26.6018 28.4679 26.6001 28.6834 26.6001 28.895C26.6001 29.2163 26.6 29.2261 26.3164 29.2202C26.1606 29.2202 26.087 29.2574 26.0923 29.4553C26.0923 29.7786 26.0923 29.7884 25.7946 29.7845C25.6388 29.7845 25.5863 29.8413 25.5898 30.0137C25.5898 30.3898 25.5898 30.766 25.5898 31.1421C25.5898 31.4713 25.5898 31.483 25.2921 31.4752C25.1171 31.4752 25.0803 31.5516 25.0838 31.7259C25.0925 32.0943 25.0838 32.4626 25.0838 32.8309C25.0838 33.1659 25.0838 33.1757 24.7914 33.1679C24.6163 33.1679 24.5725 33.2345 24.5778 33.4147C24.5778 33.7909 24.5778 34.167 24.5778 34.5432C24.5778 34.8586 24.5778 34.8684 24.2889 34.8605C24.1138 34.8605 24.0683 34.9174 24.0718 35.1035C24.0718 35.6755 24.0718 36.2476 24.0718 36.8197C24.0718 37.0528 24.0175 37.1625 23.8022 37.1214C23.5868 37.0802 23.557 37.1978 23.5588 37.4035C23.5588 38.148 23.5588 38.8924 23.5588 39.6369C23.5588 39.8642 23.515 39.9837 23.2926 39.9425C23.0703 39.9014 23.044 40.0072 23.0458 40.2207C23.0545 41.1689 23.0458 42.1171 23.0458 43.0654C23.0458 43.2613 22.9897 43.3592 22.8059 43.3279C22.6221 43.2965 22.5328 43.3847 22.5345 43.6257C22.5433 45.1048 22.5345 46.5859 22.5345 48.067C22.5345 48.3981 22.5345 48.4059 22.2404 48.404C22.0898 48.404 22.0233 48.4451 22.0285 48.6273C22.0367 49.0427 22.0367 49.458 22.0285 49.8733C22.0285 50.0849 22.1423 50.0692 22.2649 50.0692C22.3874 50.0692 22.5153 50.1025 22.5065 49.8851C22.5065 49.6892 22.5065 49.5089 22.5065 49.3209C22.5065 48.9134 22.4907 48.929 22.8287 48.9427C22.9652 48.9427 23.0178 48.8879 23.0125 48.7468C23.0038 48.5509 23.0125 48.3707 23.0125 48.1826C23.0125 47.7908 23.002 47.8104 23.3312 47.8241C23.4852 47.8241 23.5238 47.7536 23.5185 47.5988C23.5133 47.444 23.5185 47.2383 23.5185 47.0581C23.5185 46.6662 23.5185 46.6839 23.8337 46.6956C23.9825 46.6956 24.0315 46.6329 24.0245 46.4742C24.0175 46.3156 24.0245 46.1294 24.0245 45.957C24.0245 45.5515 23.9982 45.5495 24.3572 45.5652C24.4832 45.5652 24.5323 45.5143 24.5323 45.3693C24.5323 45.1734 24.5323 44.9775 24.5323 44.7816C24.5323 44.4426 24.5323 44.4348 24.8404 44.4348C24.9805 44.4348 25.0453 44.3897 25.0383 44.2212C25.0313 44.0528 25.0383 43.8451 25.0383 43.657C25.0383 43.3142 25.0383 43.3044 25.3412 43.3083C25.5023 43.3083 25.5478 43.2436 25.5443 43.0732C25.5443 42.7049 25.5443 42.3366 25.5443 41.9683C25.5443 41.5999 25.5443 41.6117 25.8437 41.6137C25.9995 41.6137 26.0555 41.5588 26.0503 41.3844C26.0415 41.0083 26.0503 40.6321 26.0503 40.256C26.0503 39.9268 26.0503 39.9151 26.3462 39.9229C26.5213 39.9229 26.5598 39.8465 26.5563 39.6722C26.5563 39.296 26.5563 38.9199 26.5563 38.5437C26.5563 38.2302 26.5563 38.2165 26.8277 38.2302C27.0168 38.2302 27.0675 38.1617 27.064 37.9599C27.0535 37.3957 27.064 36.8314 27.064 36.2672C27.064 36.0282 27.1271 35.9322 27.3372 35.9694C27.5473 36.0066 27.5788 35.9146 27.577 35.7069C27.5683 34.5941 27.577 33.4813 27.577 32.3764C27.577 32.0374 27.577 32.0277 27.8834 32.0316C28.0463 32.0316 28.0865 31.9591 28.083 31.7926C28.083 31.4399 28.083 31.0873 28.083 30.7346C28.083 30.382 28.1233 30.3526 27.7766 30.3683C27.6331 30.3683 27.5718 30.3154 27.5788 30.1508C27.5875 29.9255 27.5823 29.712 27.5823 29.5004Z" fill="#F6F6F6"/>
</svg>
