<svg width="32" height="32" viewBox="0 0 32 32" fill="none" xmlns="http://www.w3.org/2000/svg">
<path d="M0 0H32V32H0V0Z" fill="black"/>
<path d="M5 19.1571C7.5 16.1571 13.1111 10.7225 13.1111 8.15715C13.1111 3.15713 6.571 7.65717 6.571 13.4362C6.571 15.5623 6.571 24.1571 6.571 24.1571L13.1111 15.5623C13.1111 15.5623 16.9529 22.0384 16.9529 23.1571C16.9529 26.0963 13.9839 28.5698 12.8076 25.5026C11.8385 22.9758 15.7645 16.8615 18 15.5623L22 23.1571V17.6883H26V6.65715" stroke="white" stroke-width="1.5" stroke-linecap="round"/>
<path d="M16 12.1572C16.5 10.1572 18 9.65717 19.5 9.15717" stroke="#00FF00" stroke-width="1.5" stroke-linecap="round"/>
</svg>
