<svg width="48" height="28" viewBox="0 0 48 28" fill="none" xmlns="http://www.w3.org/2000/svg">
<g clip-path="url(#clip0_55_119)">
<path d="M48 15.5551V12.4441H44.3078V9.33307H40.6155V6.22205H36.9233V3.11102H33.2311V0H25.8457V6.22205H29.5388V9.33307H33.2311V12.4441H36.9233V15.5551H33.2311V18.6669H29.5388V21.778H25.8457V28H33.2311V24.8882H36.9233V21.778H40.6155V18.6669H44.3078V15.5551H48Z" fill="#F6F6F6"/>
<path d="M22.1544 15.5551V12.4441H18.4621V9.33307H14.7699V6.22205H11.0776V3.11102H7.38541V0H0.000940084V6.22205H3.69318V9.33307H7.38448V12.4441H11.0767V15.5551H7.38448V18.6669H3.69318V21.778H0.000940084V28H7.38541V24.8882H11.0767V21.778H14.769V18.6669H18.4621V15.5551H22.1544Z" fill="#F6F6F6"/>
</g>
<defs>
<clipPath id="clip0_55_119">
<rect width="48" height="28" fill="white" transform="matrix(-1 0 0 1 48 0)"/>
</clipPath>
</defs>
</svg>
