<svg width="48" height="48" viewBox="0 0 48 48" fill="none" xmlns="http://www.w3.org/2000/svg">
<g clip-path="url(#clip0_55_103)">
<path d="M48 0H4.97274V4.97274H0V48H43.0273V43.0273H48V0Z" fill="#F6F6F6"/>
<path d="M5.32745 35.2033V27.734H10.3069V32.7135H17.7762V10.3047H22.7557V35.2033H20.2693V37.693H7.8172V35.2033H5.32745Z" fill="#0C0C0C"/>
<path d="M25.2443 35.2032V30.2237H30.2238V32.7135H37.6931V27.734H32.7136V25.2442H27.7341V22.7556H25.2443V12.7966H27.7341V10.3069H40.1828V12.7966H42.6782V17.7761H37.6931V15.2864H30.2238V20.2693H35.2033V22.759H40.1828V25.2476H42.6782V35.2066H40.1828V37.6964H27.7341V35.2032H25.2443Z" fill="#0C0C0C"/>
</g>
<defs>
<clipPath id="clip0_55_103">
<rect width="48" height="48" fill="white"/>
</clipPath>
</defs>
</svg>
