<svg width="48" height="48" viewBox="0 0 48 48" fill="none" xmlns="http://www.w3.org/2000/svg">
<g clip-path="url(#clip0_55_94)">
<path d="M48 0H4.97274V4.97274H0V48H43.0273V43.0273H48V0Z" fill="#F6F6F6"/>
<path d="M44.275 26.0267L42.9372 26.0358L42.9124 26.0144C42.9124 24.7134 42.9124 23.4128 42.9124 22.1125C42.9124 22.0112 42.8798 21.9785 42.7796 21.9808C42.4237 21.9808 42.069 21.9808 41.7132 21.9808C41.6006 21.9808 41.5544 21.9481 41.5578 21.8276C41.5645 21.4898 41.5578 21.152 41.5578 20.8142C41.5578 20.6261 41.5578 20.6261 41.3753 20.6261C41.0375 20.6261 40.6997 20.6205 40.3619 20.6261C40.2346 20.6261 40.2009 20.5844 40.2031 20.4628C40.2031 20.0676 40.2031 19.6746 40.2031 19.2748L40.2279 19.2534H42.7492C42.926 19.2534 42.926 19.2534 42.926 19.4347C42.926 19.7725 42.926 20.1182 42.926 20.4594C42.926 20.5721 42.9564 20.6081 43.0701 20.607C43.4698 20.607 43.8696 20.607 44.2694 20.6148L44.275 26.0267Z" fill="#0C0C0C"/>
<path d="M41.5825 27.3907C41.5825 27.787 41.5825 28.1789 41.5825 28.5798C41.5825 28.7037 41.5453 28.742 41.4215 28.7408C40.6332 28.7408 39.8371 28.7408 39.0443 28.7408C38.916 28.7408 38.8709 28.7735 38.8754 28.9064C38.8844 29.2295 38.8754 29.5539 38.8754 29.8782C38.8754 30.0944 38.8754 30.0944 38.666 30.0944C37.8912 30.0944 37.1165 30.0944 36.3429 30.0944C36.2021 30.0944 36.1695 30.136 36.1706 30.2712C36.1766 31.0534 36.1766 31.8368 36.1706 32.6213C36.1706 32.7418 36.1999 32.7879 36.3282 32.7846C36.6751 32.7756 37.0219 32.7846 37.3687 32.7846C37.4813 32.7846 37.5275 32.8105 37.5264 32.9343C37.5264 34.6445 37.5264 36.3553 37.5264 38.067C37.5264 38.1796 37.4847 38.2134 37.3766 38.2122C37.0253 38.2066 36.6739 38.2122 36.3226 38.2122C36.2021 38.2122 36.1706 38.2505 36.1706 38.3665C36.1706 39.1548 36.1706 39.943 36.1706 40.7313C36.1706 40.9159 36.1706 40.9171 35.9859 40.9171H33.6133C33.5648 40.9171 33.5153 40.9092 33.4658 40.9058C33.441 40.5004 33.4658 40.095 33.4534 39.6908C33.4534 39.5782 33.4928 39.5433 33.602 39.5455C33.9578 39.5455 34.3137 39.5455 34.6695 39.5455C34.7765 39.5455 34.808 39.5106 34.808 39.4059C34.808 36.8024 34.808 34.1993 34.808 31.5966C34.808 31.4839 34.7675 31.4524 34.6594 31.4524C32.9613 31.4524 31.2635 31.4524 29.5662 31.4524C29.4536 31.4524 29.4153 31.4828 29.4175 31.5977C29.4243 31.9355 29.4175 32.2812 29.4175 32.6235C29.4175 32.8048 29.4175 32.806 29.2419 32.806C28.904 32.806 28.5662 32.8116 28.2284 32.806C28.0944 32.806 28.0617 32.8499 28.064 32.9771C28.0719 33.3228 28.064 33.6697 28.064 34.0165C28.064 34.1291 28.0246 34.164 27.9153 34.1629C27.5595 34.1572 27.2037 34.1629 26.8478 34.1629C26.7408 34.1629 26.7071 34.1978 26.7093 34.3036C26.7093 34.6583 26.7093 35.0142 26.7093 35.37C26.7093 35.4826 26.6744 35.5198 26.5629 35.5187C26.2026 35.513 25.8422 35.5187 25.4819 35.5187C25.3896 35.5187 25.3535 35.5457 25.3546 35.6425C25.3592 36.0021 25.3592 36.3621 25.3546 36.7224C25.3546 36.8249 25.3896 36.8553 25.4875 36.8542C25.8479 36.8542 26.2082 36.8542 26.5686 36.8542C26.6744 36.8542 26.7104 36.8891 26.7093 36.9938C26.7093 37.3452 26.7093 37.6965 26.7093 38.0478C26.7093 38.1717 26.742 38.21 26.8681 38.21C27.6563 38.2044 28.4536 38.21 29.2464 38.2043C29.3736 38.2043 29.4209 38.237 29.4175 38.3699C29.4085 38.7077 29.4175 39.0365 29.4175 39.3698C29.4175 39.5579 29.4175 39.5579 29.6123 39.5579C30.3916 39.5579 31.1708 39.5579 31.9501 39.5579C32.0897 39.5579 32.1269 39.6007 32.1235 39.7347C32.1145 40.0725 32.1235 40.4013 32.1235 40.7346C32.1235 40.9114 32.1235 40.9092 32.3025 40.9126C32.6899 40.9182 33.0761 40.8979 33.4635 40.9227C33.4894 41.3461 33.4635 41.7684 33.4736 42.1918C33.4736 42.2537 33.4432 42.2807 33.3824 42.2807H33.1662C32.4196 42.2807 31.6719 42.2807 30.9242 42.2807C30.7846 42.2807 30.7474 42.2368 30.7508 42.1028C30.7598 41.765 30.7508 41.4182 30.7564 41.077C30.7564 40.9565 30.7204 40.9227 30.6022 40.9238C29.8139 40.9238 29.0256 40.9238 28.2374 40.9238C28.0505 40.9238 28.0505 40.9238 28.0505 40.7391C28.0505 40.4013 28.0426 40.0725 28.0505 39.7392C28.0505 39.5962 28.002 39.5692 27.8714 39.5703C27.0922 39.5703 26.3129 39.5703 25.5337 39.5703C25.3445 39.5703 25.3445 39.5703 25.3445 39.3755C25.3445 39.0376 25.3445 38.6998 25.3445 38.362C25.3445 38.2629 25.3254 38.2156 25.2105 38.2167C24.4057 38.2212 23.5999 38.2212 22.7928 38.2167C22.6802 38.2167 22.6566 38.2595 22.6577 38.3597C22.6577 38.7066 22.6577 39.0534 22.6577 39.4002C22.6577 39.541 22.6127 39.5759 22.4798 39.5725C22.133 39.5646 21.7861 39.5725 21.4393 39.5725C21.3267 39.5725 21.2997 39.6086 21.3019 39.7133C21.3019 40.0736 21.3019 40.434 21.3019 40.7943C21.3019 40.8934 21.2681 40.9272 21.1679 40.9272C19.8849 40.9272 18.6016 40.9272 17.3179 40.9272C17.291 40.9254 17.2643 40.922 17.2379 40.9171C17.2131 40.5252 17.2379 40.1344 17.2278 39.7426C17.2278 39.559 17.2278 39.5579 17.4136 39.5579C18.2018 39.5579 18.9901 39.5579 19.7783 39.5579C19.8909 39.5579 19.936 39.5297 19.9337 39.407C19.9259 39.0613 19.9337 38.7145 19.9281 38.3676C19.9281 38.2348 19.972 38.1998 20.0993 38.2021C20.4495 38.21 20.8008 38.2021 21.1521 38.2021C21.2524 38.2021 21.285 38.1683 21.2839 38.0692C21.2839 37.7134 21.2839 37.3575 21.2839 37.0028C21.2839 36.8902 21.3154 36.8441 21.4359 36.8463C21.7737 36.8531 22.1116 36.8463 22.4494 36.8463C22.6374 36.8463 22.6386 36.8463 22.6386 36.6526C22.6386 35.8779 22.6386 35.1035 22.6386 34.3295C22.6386 34.2721 22.6464 34.2169 22.6498 34.155C22.7084 34.155 22.7624 34.1449 22.8244 34.1449C23.6126 34.1449 24.4009 34.1449 25.1891 34.1449C25.3017 34.1449 25.3468 34.1145 25.3445 33.9928C25.3366 33.655 25.3445 33.3082 25.3389 32.967C25.3389 32.8341 25.3704 32.7846 25.5112 32.7891C25.849 32.7981 26.1868 32.7891 26.5246 32.7947C26.6665 32.7947 26.6992 32.7508 26.6958 32.6179C26.6868 32.2936 26.6958 31.9693 26.6958 31.645C26.6958 31.4592 26.6958 31.4592 26.5111 31.4592H21.508C21.3188 31.4592 21.3199 31.4592 21.3177 31.6517C21.3177 32.0335 21.3323 32.4163 21.3064 32.7992C20.9022 32.8251 20.4968 32.7992 20.0914 32.8116C19.9788 32.8116 19.945 32.7733 19.9461 32.6641C19.9461 32.3082 19.9461 31.9524 19.9461 31.5966C19.9461 31.4896 19.9123 31.4569 19.8065 31.4569C17.6534 31.4569 15.5008 31.4569 13.3485 31.4569C13.2358 31.4569 13.2054 31.4975 13.2054 31.6067C13.2054 33.7545 13.2054 35.9027 13.2054 38.0512C13.2054 38.1638 13.2347 38.201 13.3496 38.1987C13.6874 38.1931 14.0342 38.1987 14.3766 38.1987C14.5567 38.1987 14.5579 38.1987 14.5579 38.3755C14.5579 38.7133 14.5635 39.0422 14.5579 39.3755C14.5579 39.5072 14.5849 39.5579 14.7279 39.5534C15.0657 39.5433 15.4125 39.5534 15.7549 39.5478C15.881 39.5478 15.9159 39.5905 15.9137 39.711C15.908 40.0489 15.9137 40.3867 15.9137 40.7245C15.9137 40.9013 15.9137 40.899 16.0927 40.9024C16.4801 40.9081 16.8663 40.8878 17.2537 40.9126C17.2796 41.336 17.2593 41.7582 17.2638 42.1816C17.2638 42.2436 17.2334 42.2706 17.1726 42.2706H14.7211C14.5376 42.2706 14.5376 42.2706 14.5376 42.0825C14.5376 41.7447 14.5376 41.3979 14.5376 41.0556C14.5376 40.943 14.5027 40.9159 14.398 40.9171C14.0421 40.9227 13.6863 40.9171 13.3304 40.9171C13.2178 40.9171 13.1807 40.881 13.1829 40.7695C13.1829 40.4137 13.1829 40.0579 13.1829 39.702C13.1829 39.5973 13.1536 39.5601 13.0455 39.5613C12.7077 39.5669 12.3609 39.5613 12.0186 39.5613C11.8305 39.5613 11.8305 39.5613 11.8305 39.3642V33.9073C11.8305 32.6911 11.8305 31.4749 11.8305 30.2588C11.8305 30.1191 11.7888 30.0854 11.6548 30.0865C10.8666 30.0932 10.0873 30.0865 9.3036 30.0865C9.12568 30.0865 9.12568 30.0865 9.12568 29.9074C9.12568 29.5696 9.12568 29.2318 9.12568 28.894C9.12568 28.7701 9.0919 28.7318 8.96578 28.7329C8.17753 28.7329 7.38928 28.7329 6.60102 28.7329C6.42085 28.7329 6.42085 28.7329 6.42085 28.5562C6.42085 28.2273 6.42085 27.8985 6.42085 27.5697C6.42085 27.3817 6.42085 27.3817 6.22492 27.3817C5.88709 27.3817 5.55828 27.376 5.22609 27.3817C5.09772 27.3817 5.06506 27.3389 5.06731 27.2184C5.07294 26.867 5.06731 26.5157 5.06731 26.1644C5.06731 26.0518 5.0324 26.0247 4.92655 26.0259C4.57184 26.0315 4.216 26.0259 3.86016 26.0259C3.74755 26.0259 3.71265 25.9898 3.71265 25.8784C3.71265 24.1667 3.71265 22.4555 3.71265 20.7446C3.71265 20.632 3.74981 20.5959 3.86016 20.5982C4.216 20.5982 4.57184 20.5982 4.92768 20.5982C5.03353 20.5982 5.06956 20.5655 5.06731 20.4597C5.06731 20.1129 5.06731 19.766 5.06731 19.4192C5.06731 19.2841 5.10222 19.2413 5.24073 19.2424C6.02898 19.2424 6.80822 19.2424 7.59197 19.2424C7.77214 19.2424 7.77214 19.2424 7.77327 19.0679C7.77327 18.73 7.77327 18.4012 7.77327 18.0679C7.77327 17.8922 7.77327 17.8911 7.95456 17.8911C8.74282 17.8911 9.53107 17.8911 10.3193 17.8911C10.4454 17.8911 10.4803 17.8517 10.4781 17.729C10.4702 17.3776 10.4781 17.0263 10.4781 16.675C10.4781 16.5691 10.513 16.5342 10.6189 16.5353C10.9702 16.5353 11.3215 16.5353 11.6729 16.5353C11.7956 16.5353 11.8339 16.5015 11.8339 16.3754C11.8339 15.1908 11.8339 14.0107 11.8339 12.8227C11.8339 10.9849 11.8339 9.14753 11.8339 7.31053C11.8339 7.04815 11.8114 7.07405 12.076 7.07405C12.3958 7.07405 12.7156 7.07405 13.0354 7.07405C13.157 7.07405 13.1897 7.03464 13.1874 6.91753C13.1807 6.56732 13.1874 6.21599 13.1874 5.86465C13.1874 5.75204 13.2246 5.71826 13.3349 5.71826C15.497 5.71826 17.6587 5.71826 19.82 5.71826C19.9326 5.71826 19.9675 5.75655 19.9664 5.8669C19.9608 6.22274 19.9664 6.57858 19.9664 6.93329C19.9664 7.0459 19.999 7.07405 20.106 7.07293C20.4607 7.0673 20.8177 7.07293 21.1724 7.07293C21.285 7.07293 21.3244 7.10558 21.3211 7.21932C21.3087 7.62358 21.3346 8.02896 21.3075 8.43322C21.2902 8.43786 21.2725 8.44088 21.2546 8.44223C20.4078 8.44223 19.5655 8.44223 18.7153 8.44223C18.614 8.44223 18.596 8.39269 18.6027 8.30823C18.6027 7.94338 18.6027 7.57853 18.6027 7.21369C18.6027 7.12022 18.5712 7.08869 18.4777 7.08869C17.2165 7.08869 15.9557 7.08869 14.6952 7.08869C14.5928 7.08869 14.5635 7.12473 14.5646 7.2227C14.5646 7.58304 14.5646 7.94338 14.5646 8.30373C14.5646 8.41633 14.5275 8.44449 14.4239 8.44223C14.077 8.44223 13.7302 8.44223 13.3834 8.44223C13.246 8.44223 13.2077 8.47827 13.2088 8.61677C13.2088 9.7147 13.2088 10.8137 13.2088 11.9128C13.2088 12.9488 13.2088 13.9836 13.2088 15.0196C13.2088 15.1514 13.2471 15.1908 13.3766 15.1863C13.6153 15.1762 13.8541 15.1863 14.0928 15.1863H19.7671C19.9484 15.1863 19.9484 15.1863 19.9495 14.9994C19.9495 14.6615 19.9495 14.3147 19.9495 13.9724C19.9495 13.8598 19.9867 13.8327 20.0914 13.8339C20.4506 13.8339 20.8109 13.8339 21.1713 13.8339C21.2715 13.8339 21.3053 13.8023 21.3042 13.701C21.3042 13.3463 21.3042 12.9904 21.3042 12.6346C21.3042 12.522 21.3357 12.4758 21.4562 12.4781C21.794 12.4848 22.1408 12.4781 22.4832 12.4781C22.616 12.4781 22.6622 12.4477 22.66 12.3069C22.6532 11.5277 22.66 10.7484 22.66 9.96919C22.66 9.79127 22.66 9.79127 22.482 9.79127H21.4415C21.3785 9.79127 21.3087 9.79803 21.3098 9.70118C21.3098 9.27891 21.2952 8.8555 21.3188 8.43322C21.3684 8.43322 21.4179 8.42196 21.4663 8.42196H23.8525C24.0293 8.42196 24.0293 8.42196 24.0293 8.60326C24.0293 8.94108 24.0293 9.28679 24.0293 9.62799C24.0293 9.7406 24.0585 9.77776 24.1734 9.7755C24.5686 9.7755 24.9616 9.7755 25.3592 9.7755L25.3839 9.7969C25.3839 10.1967 25.3839 10.5975 25.3839 10.9973C25.3839 11.0975 25.4166 11.1302 25.5168 11.129C25.8546 11.129 26.1992 11.129 26.5415 11.129C26.7363 11.129 26.7363 11.129 26.7363 11.3182V13.6931C26.7363 13.7415 26.7285 13.7911 26.7251 13.8395C26.3197 13.8654 25.9154 13.8395 25.51 13.853C25.3974 13.853 25.3637 13.8125 25.3648 13.7032C25.3648 13.3474 25.3648 12.9916 25.3648 12.6357C25.3648 12.5231 25.3299 12.4961 25.2252 12.4972C24.8738 12.4972 24.5225 12.504 24.1711 12.4972C24.0585 12.4972 24.027 12.54 24.0293 12.647C24.0293 12.9848 24.0293 13.3316 24.0293 13.674C24.0293 13.8496 24.0293 13.8508 23.848 13.8508C23.5101 13.8508 23.1633 13.8508 22.821 13.8508C22.7084 13.8508 22.6746 13.889 22.6757 13.9994C22.6825 14.3372 22.6847 14.675 22.6757 15.0129C22.6757 15.148 22.7073 15.1908 22.848 15.1897C24.0766 15.1897 25.3062 15.1897 26.5359 15.1897C26.7127 15.1897 26.7116 15.1897 26.7138 15.0117C26.7194 14.6244 26.6992 14.237 26.724 13.8508C27.1293 13.8237 27.5347 13.8508 27.939 13.8373C28.0516 13.8373 28.0865 13.8755 28.0854 13.9859C28.0797 14.3237 28.0854 14.6694 28.0854 15.0117C28.0854 15.1897 28.0854 15.1897 28.2644 15.1897C29.5031 15.1897 30.7418 15.1897 31.9805 15.1897C32.1032 15.1897 32.146 15.2246 32.1426 15.3507C32.1359 15.6885 32.1426 16.0353 32.1426 16.3765C32.1426 16.5049 32.1753 16.5477 32.3082 16.5466C33.0919 16.5413 33.8756 16.5413 34.6594 16.5466C34.7979 16.5466 34.8328 16.506 34.8317 16.3709C34.8261 15.3259 34.8317 14.2809 34.8317 13.2359C34.8317 11.245 34.8317 9.25563 34.8317 7.26774C34.8317 7.16189 34.8204 7.10333 34.6887 7.10446C32.941 7.10896 31.1933 7.10896 29.4457 7.10446L29.4243 7.07968C29.4243 6.6788 29.4243 6.27792 29.4243 5.87704C29.4243 5.76443 29.4603 5.73065 29.5718 5.73065C31.7339 5.73065 33.8955 5.73065 36.0569 5.73065C36.1841 5.73065 36.2032 5.7847 36.2032 5.8928C36.2032 6.68105 36.2032 7.47831 36.2032 8.27107C36.2032 8.39944 36.2381 8.44223 36.3699 8.43886C36.7167 8.42985 37.0636 8.43886 37.4104 8.43886C37.523 8.43886 37.559 8.47039 37.559 8.58412C37.559 10.295 37.559 12.0063 37.559 13.7179C37.559 13.8305 37.5264 13.8677 37.4126 13.8665C37.0613 13.8665 36.71 13.8665 36.3586 13.8665C36.246 13.8665 36.2021 13.8958 36.2032 14.0174C36.2077 14.8147 36.2077 15.6119 36.2032 16.4092C36.2032 16.5218 36.2393 16.5556 36.3508 16.5545C37.139 16.5545 37.9351 16.5545 38.7279 16.5545C38.9069 16.5545 38.9081 16.5545 38.9081 16.7324C38.9081 17.0702 38.9081 17.408 38.9081 17.7459C38.9081 17.8675 38.9373 17.9125 39.0657 17.9091C39.3945 17.9001 39.7233 17.9091 40.0522 17.9091C40.2616 17.9091 40.2616 17.9091 40.2616 18.1253C40.2616 18.5037 40.2616 18.8821 40.2616 19.2604L40.2368 19.2818C38.4869 19.2818 36.7366 19.2818 34.986 19.2818C34.8733 19.2818 34.8508 19.3246 34.8508 19.4248C34.8508 20.1996 34.8508 20.9732 34.8508 21.7468C34.8508 21.7963 34.8508 21.8459 34.8508 21.8954C34.8508 21.945 34.8227 21.9855 34.7607 21.9855C34.3385 21.9855 33.9162 22.0013 33.4928 21.9754C33.4928 21.9123 33.4826 21.8493 33.4826 21.7873C33.4826 20.5532 33.4826 19.3194 33.4826 18.0859C33.4826 17.9846 33.4691 17.9294 33.3453 17.9305C32.539 17.9305 31.7327 17.9305 30.9276 17.9305C30.8262 17.9305 30.7947 17.9643 30.7958 18.0634C30.7958 18.4147 30.8026 18.7661 30.7958 19.1174C30.7958 19.2413 30.8398 19.2683 30.9535 19.266C31.2913 19.2604 31.6381 19.266 31.9793 19.266C32.1201 19.266 32.1528 19.3111 32.1528 19.444C32.1471 20.2322 32.1528 21.0103 32.1528 21.7941C32.1528 21.9709 32.1528 21.9686 32.3318 21.972C32.7192 21.972 33.1054 21.9574 33.4928 21.9821C33.4928 22.0362 33.504 22.0947 33.504 22.1432C33.504 22.9314 33.504 23.7287 33.504 24.5214C33.504 24.634 33.5344 24.6791 33.6561 24.6768C33.9849 24.6689 34.3137 24.6768 34.6425 24.6768C34.8576 24.6768 34.8576 24.6768 34.8576 24.8874C34.8576 25.6621 34.8576 26.4369 34.8576 27.2105C34.8576 27.3513 34.9015 27.3862 35.0355 27.3828C35.3812 27.3738 35.728 27.3828 36.0749 27.3828C36.1875 27.3828 36.2156 27.4199 36.2145 27.5235C36.2145 27.8839 36.2145 28.2442 36.2145 28.6046C36.2145 28.7048 36.246 28.7386 36.3462 28.7375C36.7021 28.7375 37.0579 28.7318 37.4138 28.7375C37.5264 28.7375 37.5511 28.6969 37.55 28.5956C37.55 28.2577 37.55 27.9199 37.55 27.5821C37.55 27.385 37.55 27.3839 37.7505 27.3839H41.6016L41.5825 27.3907ZM17.2469 17.917C17.1895 17.917 17.1343 17.9283 17.0735 17.9283C16.2853 17.9283 15.497 17.9283 14.7088 17.9283C14.5961 17.9283 14.5511 17.9587 14.5534 18.0803C14.5612 18.426 14.5534 18.7728 14.5534 19.1197C14.5534 19.2188 14.5725 19.2672 14.6862 19.2649C15.0466 19.2593 15.4069 19.2649 15.7673 19.2649C15.8731 19.2649 15.9091 19.2987 15.908 19.4046C15.908 19.7649 15.908 20.1252 15.908 20.4856C15.908 20.5847 15.9373 20.6207 16.0386 20.6196C16.3855 20.6196 16.7323 20.6117 17.0791 20.6196C17.212 20.6196 17.2458 20.5779 17.2447 20.4507C17.239 19.6624 17.2447 18.8832 17.2447 18.0994C17.2447 18.0409 17.2526 17.9868 17.2559 17.9249C17.3145 17.9249 17.3685 17.9148 17.4305 17.9148C17.7773 17.9148 18.123 17.9148 18.4698 17.9148C18.561 17.9148 18.5982 17.8866 18.5971 17.7909C18.5971 17.4306 18.5971 17.0713 18.5971 16.711C18.5971 16.6108 18.5656 16.577 18.4653 16.5792C18.1275 16.5792 17.7807 16.5792 17.4395 16.5792C17.2638 16.5792 17.2649 16.5792 17.2627 16.7594C17.2526 17.1434 17.2728 17.5296 17.2469 17.917ZM30.7598 27.376C30.7598 27.4335 30.7711 27.4886 30.7711 27.5506C30.7711 28.3388 30.7711 29.1271 30.7711 29.9153C30.7711 30.0279 30.8026 30.0707 30.9231 30.0696C31.7203 30.0651 32.5176 30.0651 33.3149 30.0696C33.4275 30.0696 33.4601 30.0324 33.459 29.9221C33.459 28.6744 33.459 27.4271 33.459 26.1801C33.459 26.0574 33.4162 26.0281 33.3013 26.0304C32.9635 26.0371 32.6358 26.0304 32.3025 26.0304C32.1246 26.0304 32.1235 26.0304 32.1235 26.2083V27.251C32.1235 27.3141 32.1302 27.385 32.0345 27.3839C31.6111 27.3839 31.1877 27.3986 30.7654 27.3738C30.7604 27.3565 30.757 27.3388 30.7553 27.3209C30.7553 26.474 30.7553 25.6276 30.7553 24.7816C30.7553 24.6813 30.8026 24.6622 30.8882 24.6633C31.253 24.6633 31.6179 24.6633 31.9827 24.6633C32.0751 24.6633 32.11 24.6329 32.1088 24.5383C32.1043 24.178 32.1043 23.8176 32.1088 23.4573C32.1088 23.3548 32.0717 23.3267 31.9748 23.3278C31.628 23.3278 31.2812 23.3278 30.9343 23.3278C30.7564 23.3278 30.7564 23.3278 30.7564 23.1476C30.7564 22.3594 30.7564 21.5632 30.7564 20.7705C30.7564 20.6579 30.7249 20.6207 30.6112 20.623C30.2733 20.6297 29.9265 20.623 29.5853 20.623C29.4051 20.623 29.404 20.623 29.404 20.4462C29.404 19.6579 29.404 18.8787 29.404 18.0949C29.404 17.9643 29.377 17.9125 29.234 17.917C28.8871 17.9271 28.5403 17.917 28.1935 17.917C28.0809 17.917 28.0471 17.8776 28.0482 17.7672C28.0482 17.417 28.0482 17.0657 28.0482 16.7144C28.0482 16.595 28.0122 16.5612 27.8939 16.5612C25.3002 16.5612 22.7065 16.5612 20.1128 16.5612C19.9867 16.5612 19.9529 16.5995 19.954 16.7223C19.954 17.5195 19.954 18.3168 19.954 19.114C19.954 19.2266 19.9191 19.2706 19.8009 19.2683C19.454 19.2615 19.1072 19.2683 18.7604 19.2683C18.6376 19.2683 18.5971 19.2998 18.5982 19.4271C18.5982 20.2153 18.5982 20.9934 18.5982 21.7772C18.5982 21.972 18.5982 21.9731 18.409 21.9731H17.4226C17.248 21.9731 17.2469 21.9731 17.2469 22.1533V25.8277C17.2469 25.8907 17.239 25.9527 17.2357 26.0157C17.1816 26.0157 17.1287 26.0259 17.0746 26.027C16.7278 26.027 16.381 26.027 16.0341 26.027C15.9294 26.027 15.8923 26.0585 15.8945 26.1655C15.8945 26.5168 15.8945 26.8682 15.8945 27.2195C15.8945 27.3411 15.863 27.3862 15.7357 27.3828C15.3844 27.376 15.0331 27.3828 14.6817 27.3828C14.5793 27.3828 14.5376 27.4087 14.5387 27.519C14.5455 27.8749 14.5387 28.2307 14.5387 28.5866C14.5387 28.6868 14.5714 28.7206 14.6705 28.7194C15.0308 28.7194 15.3912 28.7194 15.7515 28.7194C15.8562 28.7194 15.8945 28.751 15.8934 28.8591C15.8878 29.2048 15.8934 29.5527 15.8934 29.8984C15.8934 30.0336 15.9249 30.0764 16.0657 30.0752C16.8393 30.0685 17.614 30.0752 18.3888 30.0752C18.5791 30.0752 18.5779 30.0752 18.5802 29.8838C18.5858 29.5009 18.5656 29.1181 18.5915 28.7363C18.9957 28.7093 19.4011 28.7363 19.8054 28.7228C19.918 28.7228 19.9529 28.76 19.9517 28.8703C19.9461 29.2217 19.9517 29.573 19.9517 29.9232C19.9517 30.0414 19.9844 30.0775 20.1049 30.0775C22.7016 30.0775 25.2991 30.0775 27.8973 30.0775C28.0212 30.0775 28.0471 30.0324 28.046 29.9198C28.0392 29.582 28.046 29.2442 28.046 28.9064C28.046 28.7239 28.046 28.7239 28.234 28.7228H29.2205C29.3961 28.7228 29.3961 28.7228 29.3973 28.5438V27.5044C29.3973 27.4402 29.3916 27.3727 29.4873 27.3727C29.9152 27.3738 30.3375 27.3546 30.7598 27.3805V27.376ZM14.5376 23.3222C14.5376 22.4709 14.5376 21.6207 14.5376 20.7694C14.5376 20.6568 14.5083 20.6185 14.3935 20.6207C14.0691 20.6275 13.7448 20.6207 13.4217 20.6207C13.1638 20.6207 13.1852 20.6432 13.1852 20.3955C13.1852 19.6253 13.1852 18.855 13.1852 18.0848C13.1852 17.953 13.1446 17.917 13.0163 17.9204C12.6784 17.9283 12.3406 17.9271 12.0028 17.9204C11.8902 17.9204 11.844 17.9497 11.8474 18.0713C11.8553 18.3911 11.8474 18.7109 11.8474 19.0307C11.8474 19.2965 11.8733 19.2739 11.6109 19.2739C10.8418 19.2739 10.0716 19.2739 9.30135 19.2739C9.1741 19.2739 9.14032 19.3133 9.14257 19.4361C9.15045 19.7739 9.14257 20.1117 9.14257 20.4496C9.14257 20.6275 9.14257 20.6286 8.96353 20.6286C8.17527 20.6286 7.37802 20.6286 6.58639 20.6286C6.47378 20.6286 6.43549 20.6601 6.43774 20.7739C6.4445 21.1117 6.43774 21.4585 6.43774 21.8008C6.43774 21.981 6.43774 21.9821 6.26208 21.9821C5.92425 21.9821 5.57742 21.9821 5.2351 21.9821C5.12812 21.9821 5.0842 22.0069 5.0842 22.124C5.08871 22.9258 5.08871 23.7276 5.0842 24.5293C5.0842 24.6329 5.11236 24.6723 5.22158 24.6701C5.55941 24.6644 5.90624 24.6701 6.24856 24.6701C6.43662 24.6701 6.43662 24.6701 6.43662 24.8536C6.43662 25.1914 6.44225 25.5293 6.43662 25.8671C6.43662 25.9966 6.47828 26.0281 6.5999 26.0247C6.9456 26.018 7.29356 26.0247 7.63926 26.0247C7.75975 26.0247 7.79466 26.0642 7.79241 26.1801C7.79241 26.527 7.79241 26.8738 7.79241 27.2206C7.79241 27.3456 7.82844 27.3817 7.95231 27.3817C8.74957 27.3817 9.54683 27.3817 10.3441 27.3817C10.4567 27.3817 10.5029 27.4132 10.4995 27.5348C10.4927 27.8726 10.4995 28.2195 10.4995 28.5607C10.4995 28.6935 10.5288 28.7397 10.6707 28.7386C11.4529 28.7318 12.2363 28.7318 13.0208 28.7386C13.1503 28.7386 13.1897 28.7025 13.1886 28.5719C13.1829 27.7837 13.1886 26.9864 13.1886 26.1937C13.1886 26.0743 13.219 26.027 13.3473 26.0304C13.6852 26.0383 14.023 26.0304 14.3608 26.0304C14.5421 26.0304 14.5432 26.0304 14.5432 25.8434L14.5376 23.3222Z" fill="#0C0C0C"/>
<path d="M25.3434 9.79695C25.3434 9.40507 25.3434 9.00869 25.3434 8.62245C25.3434 8.44678 25.3434 8.44678 25.5247 8.44566C25.8715 8.44566 26.2172 8.44566 26.564 8.44566C26.6654 8.44566 26.6969 8.41188 26.6958 8.31278C26.6958 7.96145 26.6958 7.61011 26.6958 7.2599C26.6958 7.13153 26.7307 7.08874 26.8625 7.08987C27.6507 7.08987 28.4288 7.08987 29.2126 7.08987C29.2756 7.08987 29.3376 7.08987 29.4006 7.08987L29.422 7.11464C29.422 7.49187 29.422 7.87023 29.422 8.24747C29.422 8.46367 29.422 8.46368 29.2126 8.46368C28.8748 8.46368 28.5369 8.46368 28.1991 8.46368C28.0978 8.46368 28.0662 8.49858 28.0674 8.59768C28.0674 8.9355 28.0674 9.2812 28.0674 9.6224C28.0674 9.81609 28.0674 9.81721 27.877 9.81721H25.367L25.3434 9.79695Z" fill="#0C0C0C"/>
<path d="M42.9372 26.0357C42.9372 26.4355 42.9304 26.8352 42.9372 27.235C42.9372 27.3476 42.9011 27.3904 42.7829 27.3893C42.3843 27.3893 41.9845 27.3893 41.5848 27.3893L41.5634 27.3656C41.5634 26.9659 41.5634 26.5661 41.5634 26.1675C41.5634 26.0549 41.5983 26.0121 41.7165 26.0132C42.1163 26.0132 42.5149 26.0132 42.9146 26.0132L42.9372 26.0357Z" fill="#0C0C0C"/>
<path d="M21.2941 23.3245C21.2941 22.4777 21.2941 21.6354 21.2941 20.7852C21.2941 20.6501 21.3312 20.6084 21.4686 20.6095C22.2569 20.6095 23.0451 20.6095 23.8334 20.6095C23.9606 20.6095 24.0068 20.5791 24.0034 20.4451C23.9944 20.1073 24.0034 19.7695 24.0034 19.4317C24.0034 19.256 24.0034 19.256 24.1847 19.2549H25.1846C25.3727 19.2549 25.3727 19.2549 25.3727 19.4384C25.3727 19.7763 25.3783 20.1141 25.3727 20.4519C25.3727 20.5814 25.4144 20.6129 25.536 20.6095C25.8862 20.6028 26.2375 20.6095 26.5889 20.6095C26.7015 20.6095 26.7296 20.6467 26.7285 20.7503C26.7285 21.1107 26.7285 21.471 26.7285 21.8313C26.7285 21.9304 26.76 21.9653 26.8602 21.9642C27.2206 21.9642 27.5809 21.9642 27.9413 21.9642C28.0438 21.9642 28.0832 21.9946 28.0832 22.1027C28.0832 23.3677 28.0832 24.6326 28.0832 25.8976C28.0832 26.0102 28.037 26.0417 27.9311 26.0395C27.5933 26.0395 27.2555 26.0395 26.9177 26.0395C26.7307 26.0395 26.7296 26.0395 26.7296 26.2208C26.7296 26.5586 26.7296 26.8964 26.7296 27.2342C26.7296 27.3468 26.7037 27.393 26.5799 27.393C25.3202 27.393 24.0597 27.393 22.7985 27.393C22.6859 27.393 22.6521 27.3513 22.6532 27.2432C22.6532 26.8874 22.6532 26.5316 22.6532 26.1757C22.6532 26.0631 22.6183 26.0361 22.5136 26.0372C22.1623 26.0429 21.8109 26.0372 21.4596 26.0372C21.3369 26.0372 21.2974 26.0012 21.2986 25.8762C21.2963 25.0271 21.2941 24.1758 21.2941 23.3245Z" fill="#0C0C0C"/>
<path d="M18.5983 28.7272C18.176 28.752 17.7537 28.7272 17.3303 28.7374C17.2684 28.7374 17.2402 28.7081 17.2414 28.6462C17.2414 28.6248 17.2414 28.6022 17.2414 28.5797V26.1485C17.2429 26.1082 17.2467 26.068 17.2526 26.028C17.6749 26.0033 18.0972 26.028 18.5206 26.0179C18.5329 26.0159 18.5456 26.0168 18.5575 26.0207C18.5693 26.0246 18.5801 26.0314 18.5888 26.0403C18.5976 26.0493 18.604 26.0602 18.6076 26.0722C18.6112 26.0842 18.6119 26.0968 18.6095 26.1091C18.6095 26.1316 18.6095 26.1542 18.6095 26.1767V28.6022C18.6082 28.6441 18.6044 28.6858 18.5983 28.7272Z" fill="#0C0C0C"/>
<path d="M21.3054 32.7845C21.7276 32.7597 22.1499 32.7788 22.5722 32.7743C22.6341 32.7743 22.6634 32.8036 22.6623 32.8644C22.6623 33.2878 22.6769 33.7101 22.6521 34.1324C22.2299 34.1571 21.8076 34.138 21.3853 34.1425C21.3234 34.1425 21.2941 34.1144 21.2952 34.0524C21.2986 33.6301 21.2828 33.2067 21.3054 32.7845Z" fill="#0C0C0C"/>
</g>
<defs>
<clipPath id="clip0_55_94">
<rect width="48" height="48" rx="1" fill="white"/>
</clipPath>
</defs>
</svg>
