<svg width="38" height="38" viewBox="0 0 38 38" fill="none" xmlns="http://www.w3.org/2000/svg">
<g clip-path="url(#clip0_55_56)">
<path d="M35.6251 0H35.5827V0.0423634V2.33253V2.37489V2.41726V4.70743H33.2926H33.2502H33.2078V4.74979V4.79215V7.08232V7.12468V7.16705V9.45721H30.9168H30.8745H30.8321V9.49958V9.54194V11.8321H28.5419H28.4996H28.4572V11.8745V11.9168V14.207H26.167H26.1247H26.0823H23.7922H23.7498H23.7074V14.2494V14.2917V16.5819H21.4173V14.2917V14.2494V14.207H21.3325H19.0424V11.9168V11.8321H18.9576H16.6675V9.54194V9.45721V7.16705V7.08232H16.5827H14.2926V4.79215V4.70743H14.2078H11.9168H11.8321H9.54194V2.41726V2.33253H9.45721H7.16705H7.08232H4.79215V0.0423634V0H4.74979H2.37489H0V2.37489V2.41726H0.0423634H2.33253H2.37489V4.70743V4.74979H2.41726V4.79215H4.70743H4.74979H4.79215H7.08232V7.08232V7.12468V7.16705H7.16705H9.45721V9.45721V9.54194H9.54194H11.8321V11.8321V11.9168V14.207V14.2917H11.8745H11.9168H14.2078V16.5819H11.9168H11.8745H11.8321V16.6243V16.6666V18.9568H9.54194H9.49958H9.45721V19.0415V21.3325H7.16705H7.08232V21.3749V21.4173V23.7074H4.79215H4.74979H4.70743V23.7922V26.0823H2.41726H2.33253V26.167V28.4572V28.4996V28.5419V30.8321H0.0423634H0V30.8745V33.2494V35.6243V38H2.33253H2.41726V37.9576V35.6666V35.6243V35.5819V33.2917H4.70743H4.74979H4.79215V33.2494V33.207V30.9168H7.08232H7.12468H7.16705V30.8745V30.8321V28.5419H9.45721H9.49958V28.4996V28.4572V26.167H9.54194H11.8321H11.8745H11.9168V26.1247V26.0823V23.7922H14.2078H14.2502H14.2926H16.5827V26.0823V26.1247V26.167H16.6675H18.9576V28.4572V28.5419V30.8321V30.9168H19.0424H21.3325V33.207V33.2917H21.3749H21.4173H23.7074V35.5819V35.6243V35.6666H23.7922H26.0823H26.167H28.4572V37.9576V38H28.5419H30.8321H30.9168H33.2078H33.2926H35.5827H35.6675H38V35.6243V35.5819H37.9576H35.6675H35.5827H33.2926H33.2502H33.2078H30.9168V33.2917V33.2494V33.207H30.8321H28.5419V30.9168V30.8321H28.4996H28.4572H26.167V28.5419V28.4996V28.4572V26.167V26.0823H26.0823H23.7922V23.7922H26.0823H26.167V23.7074V21.4173H28.4572H28.5419V21.3325V19.0415H30.8321H30.9168V18.9568V16.6666H33.2078H33.2926V16.5819V14.2917H35.5827H35.6675V14.207V11.9168V11.8321V9.54194H37.9576H38V9.49958V7.12468V4.74979V2.37489V0H35.6251Z" fill="#F6F6F6"/>
<path d="M38 14.207H37.9576V14.2918H38V14.207Z" fill="#F6F6F6"/>
<path d="M38 11.832H37.9576V11.9168H38V11.832Z" fill="#F6F6F6"/>
</g>
<defs>
<clipPath id="clip0_55_56">
<rect width="38" height="38" fill="white"/>
</clipPath>
</defs>
</svg>
