<svg width="48" height="48" viewBox="0 0 48 48" fill="none" xmlns="http://www.w3.org/2000/svg">
<g clip-path="url(#clip0_55_107)">
<path d="M48 4.84402H43.4223V0H38.631H4.79134H0V48H38.631V43.6688H43.4223V38.6968H48V4.84402Z" fill="#00FF00"/>
<path d="M12.9403 23.6551V20.7148H25.1362V23.6551H20.5619V36.8818H17.5135V23.6551H12.9403Z" fill="#0C0C0C"/>
<path d="M26.6599 35.4128V32.4736H29.7095V33.9437H34.2827V31.0068H31.2342V29.5345H28.1847V28.0643H26.6599V22.185H28.1847V20.7148H35.8074V22.185H37.3322V25.1241H34.2827V23.6551H29.7095V26.5942H32.7579V28.0643H35.8074V29.5345H37.3322V35.4128H35.8074V36.8829H28.1847V35.4128H26.6599Z" fill="#0C0C0C"/>
</g>
<defs>
<clipPath id="clip0_55_107">
<rect width="48" height="48" fill="white"/>
</clipPath>
</defs>
</svg>
