<svg width="48" height="48" viewBox="0 0 48 48" fill="none" xmlns="http://www.w3.org/2000/svg">
<g clip-path="url(#clip0_107_109)">
<path d="M48 0H4.97274V4.97274H0V48H43.0273V43.0273H48V0Z" fill="#F6F6F6"/>
<path d="M7 35.8183V29.2731H11.5714V33.6365H18.4286V14H23V35.8183H20.7174V38H9.28571V35.8183H7Z" fill="#0C0C0C"/>
<path d="M25 35.8154V31.4521H29.57V33.6338H36.4249V29.2705H31.8549V27.0888H27.285V24.9082H25V16.1816H27.285V14H38.7099V16.1816H41V20.5449H36.4249V18.3633H29.57V22.7295H34.1399V24.9112H38.7099V27.0918H41V35.8184H38.7099V38H27.285V35.8154H25Z" fill="#0C0C0C"/>
</g>
<defs>
<clipPath id="clip0_107_109">
<rect width="48" height="48" fill="white"/>
</clipPath>
</defs>
</svg>
