<svg width="48" height="48" viewBox="0 0 48 48" fill="none" xmlns="http://www.w3.org/2000/svg">
<g clip-path="url(#clip0_107_100)">
<path d="M48 0H4.97274V4.97274H0V48H43.0273V43.0273H48V0Z" fill="#F6F6F6"/>
<path d="M44.2749 26.027L42.9371 26.036L42.9123 26.0146C42.9123 24.7136 42.9123 23.413 42.9123 22.1128C42.9123 22.0114 42.8797 21.9788 42.7794 21.981C42.4236 21.981 42.0689 21.981 41.713 21.981C41.6004 21.981 41.5543 21.9484 41.5577 21.8279C41.5644 21.49 41.5577 21.1522 41.5577 20.8144C41.5577 20.6263 41.5577 20.6263 41.3752 20.6263C41.0374 20.6263 40.6996 20.6207 40.3618 20.6263C40.2345 20.6263 40.2007 20.5847 40.203 20.4631C40.203 20.0678 40.203 19.6748 40.203 19.2751L40.2278 19.2537H42.749C42.9258 19.2537 42.9258 19.2537 42.9258 19.435C42.9258 19.7728 42.9258 20.1185 42.9258 20.4597C42.9258 20.5723 42.9562 20.6083 43.07 20.6072C43.4697 20.6072 43.8695 20.6072 44.2692 20.6151L44.2749 26.027Z" fill="#0C0C0C"/>
<path d="M41.5825 27.3905C41.5825 27.7869 41.5825 28.1788 41.5825 28.5797C41.5825 28.7035 41.5453 28.7418 41.4215 28.7407C40.6332 28.7407 39.8371 28.7407 39.0443 28.7407C38.916 28.7407 38.8709 28.7734 38.8754 28.9062C38.8844 29.2294 38.8754 29.5537 38.8754 29.878C38.8754 30.0942 38.8754 30.0942 38.666 30.0942C37.8912 30.0942 37.1165 30.0942 36.3429 30.0942C36.2021 30.0942 36.1695 30.1359 36.1706 30.271C36.1766 31.0533 36.1766 31.8367 36.1706 32.6212C36.1706 32.7416 36.1999 32.7878 36.3282 32.7844C36.6751 32.7754 37.0219 32.7844 37.3687 32.7844C37.4813 32.7844 37.5275 32.8103 37.5264 32.9342C37.5264 34.6443 37.5264 36.3552 37.5264 38.0668C37.5264 38.1795 37.4847 38.2132 37.3766 38.2121C37.0253 38.2065 36.6739 38.2121 36.3226 38.2121C36.2021 38.2121 36.1706 38.2504 36.1706 38.3664C36.1706 39.1546 36.1706 39.9429 36.1706 40.7311C36.1706 40.9158 36.1706 40.9169 35.9859 40.9169H33.6133C33.5648 40.9169 33.5153 40.9091 33.4658 40.9057C33.441 40.5003 33.4658 40.0949 33.4534 39.6906C33.4534 39.578 33.4928 39.5431 33.602 39.5454C33.9578 39.5454 34.3137 39.5454 34.6695 39.5454C34.7765 39.5454 34.808 39.5105 34.808 39.4057C34.808 36.8023 34.808 34.1992 34.808 31.5964C34.808 31.4838 34.7675 31.4523 34.6594 31.4523C32.9613 31.4523 31.2635 31.4523 29.5662 31.4523C29.4536 31.4523 29.4153 31.4827 29.4175 31.5976C29.4243 31.9354 29.4175 32.2811 29.4175 32.6234C29.4175 32.8047 29.4175 32.8058 29.2419 32.8058C28.904 32.8058 28.5662 32.8115 28.2284 32.8058C28.0944 32.8058 28.0617 32.8498 28.064 32.977C28.0719 33.3227 28.064 33.6695 28.064 34.0164C28.064 34.129 28.0246 34.1639 27.9153 34.1628C27.5595 34.1571 27.2037 34.1628 26.8478 34.1628C26.7408 34.1628 26.7071 34.1977 26.7093 34.3035C26.7093 34.6582 26.7093 35.0141 26.7093 35.3699C26.7093 35.4825 26.6744 35.5197 26.5629 35.5185C26.2026 35.5129 25.8422 35.5185 25.4819 35.5185C25.3896 35.5185 25.3535 35.5456 25.3546 35.6424C25.3592 36.002 25.3592 36.362 25.3546 36.7223C25.3546 36.8248 25.3896 36.8552 25.4875 36.8541C25.8479 36.8541 26.2082 36.8541 26.5686 36.8541C26.6744 36.8541 26.7104 36.889 26.7093 36.9937C26.7093 37.345 26.7093 37.6964 26.7093 38.0477C26.7093 38.1716 26.742 38.2099 26.8681 38.2099C27.6563 38.2042 28.4536 38.2099 29.2464 38.2042C29.3736 38.2042 29.4209 38.2369 29.4175 38.3698C29.4085 38.7076 29.4175 39.0364 29.4175 39.3697C29.4175 39.5578 29.4175 39.5578 29.6123 39.5578C30.3916 39.5578 31.1708 39.5578 31.9501 39.5578C32.0897 39.5578 32.1269 39.6006 32.1235 39.7346C32.1145 40.0724 32.1235 40.4012 32.1235 40.7345C32.1235 40.9113 32.1235 40.9091 32.3025 40.9124C32.6899 40.9181 33.0761 40.8978 33.4635 40.9226C33.4894 41.346 33.4635 41.7682 33.4736 42.1917C33.4736 42.2536 33.4432 42.2806 33.3824 42.2806H33.1662C32.4196 42.2806 31.6719 42.2806 30.9242 42.2806C30.7846 42.2806 30.7474 42.2367 30.7508 42.1027C30.7598 41.7649 30.7508 41.418 30.7564 41.0768C30.7564 40.9564 30.7204 40.9226 30.6022 40.9237C29.8139 40.9237 29.0256 40.9237 28.2374 40.9237C28.0505 40.9237 28.0505 40.9237 28.0505 40.739C28.0505 40.4012 28.0426 40.0724 28.0505 39.7391C28.0505 39.5961 28.002 39.569 27.8714 39.5702C27.0922 39.5702 26.3129 39.5702 25.5337 39.5702C25.3445 39.5702 25.3445 39.5702 25.3445 39.3753C25.3445 39.0375 25.3445 38.6997 25.3445 38.3619C25.3445 38.2628 25.3254 38.2155 25.2105 38.2166C24.4057 38.2211 23.5999 38.2211 22.7928 38.2166C22.6802 38.2166 22.6566 38.2594 22.6577 38.3596C22.6577 38.7065 22.6577 39.0533 22.6577 39.4001C22.6577 39.5409 22.6127 39.5758 22.4798 39.5724C22.133 39.5645 21.7861 39.5724 21.4393 39.5724C21.3267 39.5724 21.2997 39.6084 21.3019 39.7132C21.3019 40.0735 21.3019 40.4339 21.3019 40.7942C21.3019 40.8933 21.2681 40.9271 21.1679 40.9271C19.8849 40.9271 18.6016 40.9271 17.3179 40.9271C17.291 40.9253 17.2643 40.9219 17.2379 40.9169C17.2131 40.5251 17.2379 40.1343 17.2278 39.7424C17.2278 39.5589 17.2278 39.5578 17.4136 39.5578C18.2018 39.5578 18.9901 39.5578 19.7783 39.5578C19.8909 39.5578 19.936 39.5296 19.9337 39.4069C19.9259 39.0612 19.9337 38.7143 19.9281 38.3675C19.9281 38.2346 19.972 38.1997 20.0993 38.202C20.4495 38.2099 20.8008 38.202 21.1521 38.202C21.2524 38.202 21.285 38.1682 21.2839 38.0691C21.2839 37.7133 21.2839 37.3574 21.2839 37.0027C21.2839 36.8901 21.3154 36.8439 21.4359 36.8462C21.7737 36.8529 22.1116 36.8462 22.4494 36.8462C22.6374 36.8462 22.6386 36.8462 22.6386 36.6525C22.6386 35.8778 22.6386 35.1034 22.6386 34.3294C22.6386 34.272 22.6464 34.2168 22.6498 34.1549C22.7084 34.1549 22.7624 34.1447 22.8244 34.1447C23.6126 34.1447 24.4009 34.1447 25.1891 34.1447C25.3017 34.1447 25.3468 34.1143 25.3445 33.9927C25.3366 33.6549 25.3445 33.3081 25.3389 32.9669C25.3389 32.834 25.3704 32.7844 25.5112 32.7889C25.849 32.7979 26.1868 32.7889 26.5246 32.7946C26.6665 32.7946 26.6992 32.7507 26.6958 32.6178C26.6868 32.2935 26.6958 31.9692 26.6958 31.6449C26.6958 31.459 26.6958 31.459 26.5111 31.459H21.508C21.3188 31.459 21.3199 31.459 21.3177 31.6516C21.3177 32.0333 21.3323 32.4162 21.3064 32.7991C20.9022 32.825 20.4968 32.7991 20.0914 32.8115C19.9788 32.8115 19.945 32.7732 19.9461 32.6639C19.9461 32.3081 19.9461 31.9523 19.9461 31.5964C19.9461 31.4895 19.9123 31.4568 19.8065 31.4568C17.6534 31.4568 15.5008 31.4568 13.3485 31.4568C13.2358 31.4568 13.2054 31.4973 13.2054 31.6066C13.2054 33.7544 13.2054 35.9025 13.2054 38.0511C13.2054 38.1637 13.2347 38.2009 13.3496 38.1986C13.6874 38.193 14.0342 38.1986 14.3766 38.1986C14.5567 38.1986 14.5579 38.1986 14.5579 38.3754C14.5579 38.7132 14.5635 39.042 14.5579 39.3753C14.5579 39.5071 14.5849 39.5578 14.7279 39.5533C15.0657 39.5431 15.4125 39.5533 15.7549 39.5476C15.881 39.5476 15.9159 39.5904 15.9137 39.7109C15.908 40.0487 15.9137 40.3866 15.9137 40.7244C15.9137 40.9012 15.9137 40.8989 16.0927 40.9023C16.4801 40.9079 16.8663 40.8877 17.2537 40.9124C17.2796 41.3358 17.2593 41.7581 17.2638 42.1815C17.2638 42.2435 17.2334 42.2705 17.1726 42.2705H14.7211C14.5376 42.2705 14.5376 42.2705 14.5376 42.0824C14.5376 41.7446 14.5376 41.3978 14.5376 41.0554C14.5376 40.9428 14.5027 40.9158 14.398 40.9169C14.0421 40.9226 13.6863 40.9169 13.3304 40.9169C13.2178 40.9169 13.1807 40.8809 13.1829 40.7694C13.1829 40.4136 13.1829 40.0577 13.1829 39.7019C13.1829 39.5972 13.1536 39.56 13.0455 39.5611C12.7077 39.5668 12.3609 39.5611 12.0186 39.5611C11.8305 39.5611 11.8305 39.5611 11.8305 39.3641V33.9071C11.8305 32.691 11.8305 31.4748 11.8305 30.2587C11.8305 30.119 11.7888 30.0852 11.6548 30.0864C10.8666 30.0931 10.0873 30.0864 9.3036 30.0864C9.12568 30.0864 9.12568 30.0864 9.12568 29.9073C9.12568 29.5695 9.12568 29.2317 9.12568 28.8939C9.12568 28.77 9.0919 28.7317 8.96578 28.7328C8.17753 28.7328 7.38928 28.7328 6.60102 28.7328C6.42085 28.7328 6.42085 28.7328 6.42085 28.556C6.42085 28.2272 6.42085 27.8984 6.42085 27.5696C6.42085 27.3815 6.42085 27.3815 6.22492 27.3815C5.88709 27.3815 5.55828 27.3759 5.22609 27.3815C5.09772 27.3815 5.06506 27.3387 5.06731 27.2183C5.07294 26.8669 5.06731 26.5156 5.06731 26.1643C5.06731 26.0516 5.0324 26.0246 4.92655 26.0257C4.57184 26.0314 4.216 26.0257 3.86016 26.0257C3.74755 26.0257 3.71265 25.9897 3.71265 25.8782C3.71265 24.1666 3.71265 22.4553 3.71265 20.7445C3.71265 20.6319 3.74981 20.5958 3.86016 20.5981C4.216 20.5981 4.57184 20.5981 4.92768 20.5981C5.03353 20.5981 5.06956 20.5654 5.06731 20.4596C5.06731 20.1127 5.06731 19.7659 5.06731 19.4191C5.06731 19.2839 5.10222 19.2412 5.24073 19.2423C6.02898 19.2423 6.80822 19.2423 7.59197 19.2423C7.77214 19.2423 7.77214 19.2423 7.77327 19.0677C7.77327 18.7299 7.77327 18.4011 7.77327 18.0678C7.77327 17.8921 7.77327 17.891 7.95456 17.891C8.74282 17.891 9.53107 17.891 10.3193 17.891C10.4454 17.891 10.4803 17.8516 10.4781 17.7288C10.4702 17.3775 10.4781 17.0262 10.4781 16.6748C10.4781 16.569 10.513 16.5341 10.6189 16.5352C10.9702 16.5352 11.3215 16.5352 11.6729 16.5352C11.7956 16.5352 11.8339 16.5014 11.8339 16.3753C11.8339 15.1907 11.8339 14.0105 11.8339 12.8225C11.8339 10.9848 11.8339 9.14741 11.8339 7.31041C11.8339 7.04803 11.8114 7.07393 12.076 7.07393C12.3958 7.07393 12.7156 7.07393 13.0354 7.07393C13.157 7.07393 13.1897 7.03452 13.1874 6.91741C13.1807 6.5672 13.1874 6.21586 13.1874 5.86453C13.1874 5.75192 13.2246 5.71814 13.3349 5.71814C15.497 5.71814 17.6587 5.71814 19.82 5.71814C19.9326 5.71814 19.9675 5.75643 19.9664 5.86678C19.9608 6.22262 19.9664 6.57846 19.9664 6.93317C19.9664 7.04578 19.999 7.07393 20.106 7.07281C20.4607 7.06718 20.8177 7.07281 21.1724 7.07281C21.285 7.07281 21.3244 7.10546 21.3211 7.2192C21.3087 7.62346 21.3346 8.02884 21.3075 8.4331C21.2902 8.43774 21.2725 8.44075 21.2546 8.44211C20.4078 8.44211 19.5655 8.44211 18.7153 8.44211C18.614 8.44211 18.596 8.39256 18.6027 8.30811C18.6027 7.94326 18.6027 7.57841 18.6027 7.21356C18.6027 7.1201 18.5712 7.08857 18.4777 7.08857C17.2165 7.08857 15.9557 7.08857 14.6952 7.08857C14.5928 7.08857 14.5635 7.12461 14.5646 7.22257C14.5646 7.58292 14.5646 7.94326 14.5646 8.3036C14.5646 8.41621 14.5275 8.44436 14.4239 8.44211C14.077 8.44211 13.7302 8.44211 13.3834 8.44211C13.246 8.44211 13.2077 8.47815 13.2088 8.61665C13.2088 9.71457 13.2088 10.8136 13.2088 11.9127C13.2088 12.9487 13.2088 13.9835 13.2088 15.0195C13.2088 15.1513 13.2471 15.1907 13.3766 15.1862C13.6153 15.176 13.8541 15.1862 14.0928 15.1862H19.7671C19.9484 15.1862 19.9484 15.1862 19.9495 14.9992C19.9495 14.6614 19.9495 14.3146 19.9495 13.9723C19.9495 13.8596 19.9867 13.8326 20.0914 13.8337C20.4506 13.8337 20.8109 13.8337 21.1713 13.8337C21.2715 13.8337 21.3053 13.8022 21.3042 13.7009C21.3042 13.3462 21.3042 12.9903 21.3042 12.6345C21.3042 12.5219 21.3357 12.4757 21.4562 12.478C21.794 12.4847 22.1408 12.478 22.4832 12.478C22.616 12.478 22.6622 12.4476 22.66 12.3068C22.6532 11.5276 22.66 10.7483 22.66 9.96907C22.66 9.79115 22.66 9.79115 22.482 9.79115H21.4415C21.3785 9.79115 21.3087 9.7979 21.3098 9.70106C21.3098 9.27878 21.2952 8.85538 21.3188 8.4331C21.3684 8.4331 21.4179 8.42184 21.4663 8.42184H23.8525C24.0293 8.42184 24.0293 8.42184 24.0293 8.60314C24.0293 8.94096 24.0293 9.28667 24.0293 9.62787C24.0293 9.74047 24.0585 9.77763 24.1734 9.77538C24.5686 9.77538 24.9616 9.77538 25.3592 9.77538L25.3839 9.79678C25.3839 10.1965 25.3839 10.5974 25.3839 10.9972C25.3839 11.0974 25.4166 11.13 25.5168 11.1289C25.8546 11.1289 26.1992 11.1289 26.5415 11.1289C26.7363 11.1289 26.7363 11.1289 26.7363 11.3181V13.693C26.7363 13.7414 26.7285 13.791 26.7251 13.8394C26.3197 13.8653 25.9154 13.8394 25.51 13.8529C25.3974 13.8529 25.3637 13.8124 25.3648 13.7031C25.3648 13.3473 25.3648 12.9914 25.3648 12.6356C25.3648 12.523 25.3299 12.496 25.2252 12.4971C24.8738 12.4971 24.5225 12.5039 24.1711 12.4971C24.0585 12.4971 24.027 12.5399 24.0293 12.6469C24.0293 12.9847 24.0293 13.3315 24.0293 13.6738C24.0293 13.8495 24.0293 13.8506 23.848 13.8506C23.5101 13.8506 23.1633 13.8506 22.821 13.8506C22.7084 13.8506 22.6746 13.8889 22.6757 13.9993C22.6825 14.3371 22.6847 14.6749 22.6757 15.0127C22.6757 15.1479 22.7073 15.1907 22.848 15.1895C24.0766 15.1895 25.3062 15.1895 26.5359 15.1895C26.7127 15.1895 26.7116 15.1895 26.7138 15.0116C26.7194 14.6243 26.6992 14.2369 26.724 13.8506C27.1293 13.8236 27.5347 13.8506 27.939 13.8371C28.0516 13.8371 28.0865 13.8754 28.0854 13.9858C28.0797 14.3236 28.0854 14.6693 28.0854 15.0116C28.0854 15.1895 28.0854 15.1895 28.2644 15.1895C29.5031 15.1895 30.7418 15.1895 31.9805 15.1895C32.1032 15.1895 32.146 15.2245 32.1426 15.3506C32.1359 15.6884 32.1426 16.0352 32.1426 16.3764C32.1426 16.5048 32.1753 16.5476 32.3082 16.5465C33.0919 16.5412 33.8756 16.5412 34.6594 16.5465C34.7979 16.5465 34.8328 16.5059 34.8317 16.3708C34.8261 15.3258 34.8317 14.2808 34.8317 13.2358C34.8317 11.2449 34.8317 9.25551 34.8317 7.26762C34.8317 7.16177 34.8204 7.10321 34.6887 7.10434C32.941 7.10884 31.1933 7.10884 29.4457 7.10434L29.4243 7.07956C29.4243 6.67868 29.4243 6.2778 29.4243 5.87692C29.4243 5.76431 29.4603 5.73053 29.5718 5.73053C31.7339 5.73053 33.8955 5.73053 36.0569 5.73053C36.1841 5.73053 36.2032 5.78458 36.2032 5.89268C36.2032 6.68093 36.2032 7.47819 36.2032 8.27095C36.2032 8.39932 36.2381 8.44211 36.3699 8.43873C36.7167 8.42972 37.0636 8.43873 37.4104 8.43873C37.523 8.43873 37.559 8.47026 37.559 8.584C37.559 10.2949 37.559 12.0061 37.559 13.7178C37.559 13.8304 37.5264 13.8675 37.4126 13.8664C37.0613 13.8664 36.71 13.8664 36.3586 13.8664C36.246 13.8664 36.2021 13.8957 36.2032 14.0173C36.2077 14.8146 36.2077 15.6118 36.2032 16.4091C36.2032 16.5217 36.2393 16.5555 36.3508 16.5543C37.139 16.5543 37.9351 16.5543 38.7279 16.5543C38.9069 16.5543 38.9081 16.5543 38.9081 16.7323C38.9081 17.0701 38.9081 17.4079 38.9081 17.7457C38.9081 17.8673 38.9373 17.9124 39.0657 17.909C39.3945 17.9 39.7233 17.909 40.0522 17.909C40.2616 17.909 40.2616 17.909 40.2616 18.1252C40.2616 18.5036 40.2616 18.8819 40.2616 19.2603L40.2368 19.2817C38.4869 19.2817 36.7366 19.2817 34.986 19.2817C34.8733 19.2817 34.8508 19.3245 34.8508 19.4247C34.8508 20.1994 34.8508 20.9731 34.8508 21.7467C34.8508 21.7962 34.8508 21.8458 34.8508 21.8953C34.8508 21.9449 34.8227 21.9854 34.7607 21.9854C34.3385 21.9854 33.9162 22.0012 33.4928 21.9753C33.4928 21.9122 33.4826 21.8491 33.4826 21.7872C33.4826 20.553 33.4826 19.3192 33.4826 18.0858C33.4826 17.9845 33.4691 17.9293 33.3453 17.9304C32.539 17.9304 31.7327 17.9304 30.9276 17.9304C30.8262 17.9304 30.7947 17.9642 30.7958 18.0633C30.7958 18.4146 30.8026 18.766 30.7958 19.1173C30.7958 19.2412 30.8398 19.2682 30.9535 19.2659C31.2913 19.2603 31.6381 19.2659 31.9793 19.2659C32.1201 19.2659 32.1528 19.311 32.1528 19.4438C32.1471 20.2321 32.1528 21.0102 32.1528 21.794C32.1528 21.9708 32.1528 21.9685 32.3318 21.9719C32.7192 21.9719 33.1054 21.9572 33.4928 21.982C33.4928 22.0361 33.504 22.0946 33.504 22.143C33.504 22.9313 33.504 23.7286 33.504 24.5213C33.504 24.6339 33.5344 24.679 33.6561 24.6767C33.9849 24.6688 34.3137 24.6767 34.6425 24.6767C34.8576 24.6767 34.8576 24.6767 34.8576 24.8873C34.8576 25.662 34.8576 26.4368 34.8576 27.2104C34.8576 27.3511 34.9015 27.386 35.0355 27.3827C35.3812 27.3737 35.728 27.3827 36.0749 27.3827C36.1875 27.3827 36.2156 27.4198 36.2145 27.5234C36.2145 27.8838 36.2145 28.2441 36.2145 28.6045C36.2145 28.7047 36.246 28.7385 36.3462 28.7373C36.7021 28.7373 37.0579 28.7317 37.4138 28.7373C37.5264 28.7373 37.5511 28.6968 37.55 28.5954C37.55 28.2576 37.55 27.9198 37.55 27.582C37.55 27.3849 37.55 27.3838 37.7505 27.3838H41.6016L41.5825 27.3905ZM17.2469 17.9169C17.1895 17.9169 17.1343 17.9282 17.0735 17.9282C16.2853 17.9282 15.497 17.9282 14.7088 17.9282C14.5961 17.9282 14.5511 17.9586 14.5534 18.0802C14.5612 18.4259 14.5534 18.7727 14.5534 19.1195C14.5534 19.2186 14.5725 19.2671 14.6862 19.2648C15.0466 19.2592 15.4069 19.2648 15.7673 19.2648C15.8731 19.2648 15.9091 19.2986 15.908 19.4044C15.908 19.7648 15.908 20.1251 15.908 20.4855C15.908 20.5846 15.9373 20.6206 16.0386 20.6195C16.3855 20.6195 16.7323 20.6116 17.0791 20.6195C17.212 20.6195 17.2458 20.5778 17.2447 20.4506C17.239 19.6623 17.2447 18.8831 17.2447 18.0993C17.2447 18.0408 17.2526 17.9867 17.2559 17.9248C17.3145 17.9248 17.3685 17.9146 17.4305 17.9146C17.7773 17.9146 18.123 17.9146 18.4698 17.9146C18.561 17.9146 18.5982 17.8865 18.5971 17.7908C18.5971 17.4304 18.5971 17.0712 18.5971 16.7109C18.5971 16.6106 18.5656 16.5769 18.4653 16.5791C18.1275 16.5791 17.7807 16.5791 17.4395 16.5791C17.2638 16.5791 17.2649 16.5791 17.2627 16.7593C17.2526 17.1433 17.2728 17.5295 17.2469 17.9169ZM30.7598 27.3759C30.7598 27.4333 30.7711 27.4885 30.7711 27.5504C30.7711 28.3387 30.7711 29.127 30.7711 29.9152C30.7711 30.0278 30.8026 30.0706 30.9231 30.0695C31.7203 30.065 32.5176 30.065 33.3149 30.0695C33.4275 30.0695 33.4601 30.0323 33.459 29.922C33.459 28.6743 33.459 27.427 33.459 26.18C33.459 26.0573 33.4162 26.028 33.3013 26.0303C32.9635 26.037 32.6358 26.0303 32.3025 26.0303C32.1246 26.0303 32.1235 26.0303 32.1235 26.2082V27.2509C32.1235 27.314 32.1302 27.3849 32.0345 27.3838C31.6111 27.3838 31.1877 27.3984 30.7654 27.3737C30.7604 27.3564 30.757 27.3386 30.7553 27.3207C30.7553 26.4739 30.7553 25.6275 30.7553 24.7814C30.7553 24.6812 30.8026 24.6621 30.8882 24.6632C31.253 24.6632 31.6179 24.6632 31.9827 24.6632C32.0751 24.6632 32.11 24.6328 32.1088 24.5382C32.1043 24.1779 32.1043 23.8175 32.1088 23.4572C32.1088 23.3547 32.0717 23.3265 31.9748 23.3277C31.628 23.3277 31.2812 23.3277 30.9343 23.3277C30.7564 23.3277 30.7564 23.3277 30.7564 23.1475C30.7564 22.3593 30.7564 21.5631 30.7564 20.7704C30.7564 20.6578 30.7249 20.6206 30.6112 20.6228C30.2733 20.6296 29.9265 20.6228 29.5853 20.6228C29.4051 20.6228 29.404 20.6228 29.404 20.4461C29.404 19.6578 29.404 18.8786 29.404 18.0948C29.404 17.9642 29.377 17.9124 29.234 17.9169C28.8871 17.927 28.5403 17.9169 28.1935 17.9169C28.0809 17.9169 28.0471 17.8775 28.0482 17.7671C28.0482 17.4169 28.0482 17.0656 28.0482 16.7142C28.0482 16.5949 28.0122 16.5611 27.8939 16.5611C25.3002 16.5611 22.7065 16.5611 20.1128 16.5611C19.9867 16.5611 19.9529 16.5994 19.954 16.7221C19.954 17.5194 19.954 18.3166 19.954 19.1139C19.954 19.2265 19.9191 19.2704 19.8009 19.2682C19.454 19.2614 19.1072 19.2682 18.7604 19.2682C18.6376 19.2682 18.5971 19.2997 18.5982 19.427C18.5982 20.2152 18.5982 20.9933 18.5982 21.7771C18.5982 21.9719 18.5982 21.973 18.409 21.973H17.4226C17.248 21.973 17.2469 21.973 17.2469 22.1532V25.8276C17.2469 25.8906 17.239 25.9526 17.2357 26.0156C17.1816 26.0156 17.1287 26.0257 17.0746 26.0269C16.7278 26.0269 16.381 26.0269 16.0341 26.0269C15.9294 26.0269 15.8923 26.0584 15.8945 26.1654C15.8945 26.5167 15.8945 26.868 15.8945 27.2194C15.8945 27.341 15.863 27.386 15.7357 27.3827C15.3844 27.3759 15.0331 27.3827 14.6817 27.3827C14.5793 27.3827 14.5376 27.4086 14.5387 27.5189C14.5455 27.8748 14.5387 28.2306 14.5387 28.5864C14.5387 28.6867 14.5714 28.7204 14.6705 28.7193C15.0308 28.7193 15.3912 28.7193 15.7515 28.7193C15.8562 28.7193 15.8945 28.7508 15.8934 28.8589C15.8878 29.2047 15.8934 29.5526 15.8934 29.8983C15.8934 30.0334 15.9249 30.0762 16.0657 30.0751C16.8393 30.0683 17.614 30.0751 18.3888 30.0751C18.5791 30.0751 18.5779 30.0751 18.5802 29.8837C18.5858 29.5008 18.5656 29.1179 18.5915 28.7362C18.9957 28.7092 19.4011 28.7362 19.8054 28.7227C19.918 28.7227 19.9529 28.7599 19.9517 28.8702C19.9461 29.2215 19.9517 29.5729 19.9517 29.9231C19.9517 30.0413 19.9844 30.0774 20.1049 30.0774C22.7016 30.0774 25.2991 30.0774 27.8973 30.0774C28.0212 30.0774 28.0471 30.0323 28.046 29.9197C28.0392 29.5819 28.046 29.2441 28.046 28.9062C28.046 28.7238 28.046 28.7238 28.234 28.7227H29.2205C29.3961 28.7227 29.3961 28.7227 29.3973 28.5436V27.5043C29.3973 27.4401 29.3916 27.3725 29.4873 27.3725C29.9152 27.3737 30.3375 27.3545 30.7598 27.3804V27.3759ZM14.5376 23.322C14.5376 22.4707 14.5376 21.6205 14.5376 20.7692C14.5376 20.6566 14.5083 20.6183 14.3935 20.6206C14.0691 20.6273 13.7448 20.6206 13.4217 20.6206C13.1638 20.6206 13.1852 20.6431 13.1852 20.3954C13.1852 19.6251 13.1852 18.8549 13.1852 18.0847C13.1852 17.9529 13.1446 17.9169 13.0163 17.9203C12.6784 17.9282 12.3406 17.927 12.0028 17.9203C11.8902 17.9203 11.844 17.9495 11.8474 18.0712C11.8553 18.391 11.8474 18.7108 11.8474 19.0306C11.8474 19.2963 11.8733 19.2738 11.6109 19.2738C10.8418 19.2738 10.0716 19.2738 9.30135 19.2738C9.1741 19.2738 9.14032 19.3132 9.14257 19.436C9.15045 19.7738 9.14257 20.1116 9.14257 20.4494C9.14257 20.6274 9.14257 20.6285 8.96353 20.6285C8.17527 20.6285 7.37802 20.6285 6.58639 20.6285C6.47378 20.6285 6.43549 20.66 6.43774 20.7737C6.4445 21.1116 6.43774 21.4584 6.43774 21.8007C6.43774 21.9809 6.43774 21.982 6.26208 21.982C5.92425 21.982 5.57742 21.982 5.2351 21.982C5.12812 21.982 5.0842 22.0068 5.0842 22.1239C5.08871 22.9257 5.08871 23.7274 5.0842 24.5292C5.0842 24.6328 5.11236 24.6722 5.22158 24.67C5.55941 24.6643 5.90624 24.67 6.24856 24.67C6.43662 24.67 6.43662 24.67 6.43662 24.8535C6.43662 25.1913 6.44225 25.5291 6.43662 25.867C6.43662 25.9965 6.47828 26.028 6.5999 26.0246C6.9456 26.0179 7.29356 26.0246 7.63926 26.0246C7.75975 26.0246 7.79466 26.064 7.79241 26.18C7.79241 26.5268 7.79241 26.8737 7.79241 27.2205C7.79241 27.3455 7.82844 27.3815 7.95231 27.3815C8.74957 27.3815 9.54683 27.3815 10.3441 27.3815C10.4567 27.3815 10.5029 27.4131 10.4995 27.5347C10.4927 27.8725 10.4995 28.2193 10.4995 28.5605C10.4995 28.6934 10.5288 28.7396 10.6707 28.7385C11.4529 28.7317 12.2363 28.7317 13.0208 28.7385C13.1503 28.7385 13.1897 28.7024 13.1886 28.5718C13.1829 27.7835 13.1886 26.9863 13.1886 26.1935C13.1886 26.0742 13.219 26.0269 13.3473 26.0303C13.6852 26.0381 14.023 26.0303 14.3608 26.0303C14.5421 26.0303 14.5432 26.0302 14.5432 25.8433L14.5376 23.322Z" fill="#0C0C0C"/>
<path d="M25.3435 9.79682C25.3435 9.40495 25.3435 9.00857 25.3435 8.62233C25.3435 8.44666 25.3435 8.44666 25.5248 8.44554C25.8716 8.44554 26.2173 8.44554 26.5642 8.44554C26.6655 8.44554 26.697 8.41175 26.6959 8.31266C26.6959 7.96132 26.6959 7.60999 26.6959 7.25978C26.6959 7.13141 26.7308 7.08862 26.8626 7.08974C27.6508 7.08974 28.4289 7.08974 29.2127 7.08974C29.2758 7.08974 29.3377 7.08974 29.4007 7.08974L29.4221 7.11452C29.4221 7.49175 29.4221 7.87011 29.4221 8.24735C29.4221 8.46355 29.4221 8.46355 29.2127 8.46355C28.8749 8.46355 28.537 8.46355 28.1992 8.46355C28.0979 8.46355 28.0664 8.49846 28.0675 8.59756C28.0675 8.93538 28.0675 9.28108 28.0675 9.62228C28.0675 9.81597 28.0675 9.81709 27.8772 9.81709H25.3672L25.3435 9.79682Z" fill="#0C0C0C"/>
<path d="M42.9373 26.036C42.9373 26.4357 42.9305 26.8355 42.9373 27.2352C42.9373 27.3478 42.9013 27.3906 42.783 27.3895C42.3844 27.3895 41.9846 27.3895 41.5849 27.3895L41.5635 27.3659C41.5635 26.9661 41.5635 26.5664 41.5635 26.1677C41.5635 26.0551 41.5984 26.0123 41.7166 26.0134C42.1164 26.0134 42.515 26.0134 42.9148 26.0134L42.9373 26.036Z" fill="#0C0C0C"/>
<path d="M21.2939 23.3244C21.2939 22.4776 21.2939 21.6353 21.2939 20.7851C21.2939 20.65 21.3311 20.6083 21.4685 20.6094C22.2567 20.6094 23.045 20.6094 23.8332 20.6094C23.9605 20.6094 24.0067 20.579 24.0033 20.445C23.9943 20.1072 24.0033 19.7694 24.0033 19.4316C24.0033 19.2559 24.0033 19.2559 24.1846 19.2548H25.1845C25.3726 19.2548 25.3726 19.2548 25.3726 19.4383C25.3726 19.7761 25.3782 20.114 25.3726 20.4518C25.3726 20.5813 25.4142 20.6128 25.5359 20.6094C25.8861 20.6027 26.2374 20.6094 26.5887 20.6094C26.7013 20.6094 26.7295 20.6466 26.7284 20.7502C26.7284 21.1105 26.7284 21.4709 26.7284 21.8312C26.7284 21.9303 26.7599 21.9652 26.8601 21.9641C27.2205 21.9641 27.5808 21.9641 27.9412 21.9641C28.0436 21.9641 28.083 21.9945 28.083 22.1026C28.083 23.3676 28.083 24.6325 28.083 25.8975C28.083 26.0101 28.0369 26.0416 27.931 26.0394C27.5932 26.0394 27.2554 26.0394 26.9176 26.0394C26.7306 26.0394 26.7295 26.0394 26.7295 26.2206C26.7295 26.5585 26.7295 26.8963 26.7295 27.2341C26.7295 27.3467 26.7036 27.3929 26.5797 27.3929C25.32 27.3929 24.0596 27.3929 22.7984 27.3929C22.6858 27.3929 22.652 27.3512 22.6531 27.2431C22.6531 26.8873 22.6531 26.5314 22.6531 26.1756C22.6531 26.063 22.6182 26.036 22.5135 26.0371C22.1621 26.0427 21.8108 26.0371 21.4595 26.0371C21.3367 26.0371 21.2973 26.0011 21.2984 25.8761C21.2962 25.027 21.2939 24.1757 21.2939 23.3244Z" fill="#0C0C0C"/>
<path d="M18.5982 28.7272C18.1759 28.752 17.7536 28.7272 17.3302 28.7374C17.2683 28.7374 17.2401 28.7081 17.2412 28.6462C17.2412 28.6248 17.2412 28.6022 17.2412 28.5797V26.1485C17.2428 26.1082 17.2466 26.068 17.2525 26.028C17.6748 26.0033 18.0971 26.028 18.5205 26.0179C18.5328 26.0159 18.5455 26.0168 18.5573 26.0207C18.5692 26.0246 18.58 26.0314 18.5887 26.0403C18.5975 26.0493 18.6039 26.0602 18.6075 26.0722C18.6111 26.0842 18.6118 26.0968 18.6094 26.1091C18.6094 26.1316 18.6094 26.1542 18.6094 26.1767V28.6022C18.6081 28.6441 18.6043 28.6858 18.5982 28.7272Z" fill="#0C0C0C"/>
<path d="M21.3054 32.7845C21.7276 32.7597 22.1499 32.7788 22.5722 32.7743C22.6341 32.7743 22.6634 32.8036 22.6623 32.8644C22.6623 33.2878 22.6769 33.7101 22.6521 34.1324C22.2299 34.1571 21.8076 34.138 21.3853 34.1425C21.3234 34.1425 21.2941 34.1144 21.2952 34.0524C21.2986 33.6301 21.2828 33.2067 21.3054 32.7845Z" fill="#0C0C0C"/>
</g>
<defs>
<clipPath id="clip0_107_100">
<rect width="48" height="48" rx="1" fill="white"/>
</clipPath>
</defs>
</svg>
