<svg width="48" height="48" viewBox="0 0 48 48" fill="none" xmlns="http://www.w3.org/2000/svg">
<g clip-path="url(#clip0_107_113)">
<path d="M48 4.84402H43.4223V0H38.631H4.79134H0V48H38.631V43.6688H43.4223V38.6968H48V4.84402Z" fill="#00FF00"/>
<path d="M12.9403 23.6552V20.715H25.1362V23.6552H20.5619V36.8819H17.5135V23.6552H12.9403Z" fill="#0C0C0C"/>
<path d="M26.6599 35.4129V32.4737H29.7095V33.9439H34.2827V31.0069H31.2342V29.5346H28.1847V28.0645H26.6599V22.1851H28.1847V20.715H35.8074V22.1851H37.3322V25.1242H34.2827V23.6552H29.7095V26.5944H32.7579V28.0645H35.8074V29.5346H37.3322V35.4129H35.8074V36.883H28.1847V35.4129H26.6599Z" fill="#0C0C0C"/>
</g>
<defs>
<clipPath id="clip0_107_113">
<rect width="48" height="48" fill="white"/>
</clipPath>
</defs>
</svg>
